<?xml version="1.0" encoding="UTF-8" standalone="no"?>
<svg
   xmlns:dc="http://purl.org/dc/elements/1.1/"
   xmlns:cc="http://creativecommons.org/ns#"
   xmlns:rdf="http://www.w3.org/1999/02/22-rdf-syntax-ns#"
   xmlns:svg="http://www.w3.org/2000/svg"
   xmlns="http://www.w3.org/2000/svg"
   version="1.1"
   id="svg7086"
   viewBox="0 0 79.876249 64.676248"
   height="18.253075mm"
   width="22.542852mm">
  <defs
     id="defs7088" />
  <metadata
     id="metadata7091">
    <rdf:RDF>
      <cc:Work
         rdf:about="">
        <dc:format>image/svg+xml</dc:format>
        <dc:type
           rdf:resource="http://purl.org/dc/dcmitype/StillImage" />
        <dc:title></dc:title>
      </cc:Work>
    </rdf:RDF>
  </metadata>
  <g
     transform="translate(257.08098,-97.16694)"
     id="layer1">
    <g
       id="g7063"
       transform="matrix(1.25,0,0,-1.25,-595.34747,391.91584)">
      <g
         id="g244"
         transform="translate(308.70319,235.68012)">
        <path
           d="m 0,0 c -6.32,0 -12.107,-2.275 -16.594,-6.046 -1.893,3.659 -5.706,6.165 -10.111,6.165 -6.288,0 -11.385,-5.097 -11.385,-11.385 0,-6.288 5.097,-11.385 11.385,-11.385 0.372,0 0.738,0.02 1.101,0.055 -0.131,-1.054 -0.207,-2.125 -0.207,-3.215 0,-14.255 11.556,-25.811 25.811,-25.811 14.255,0 25.811,11.556 25.811,25.811 C 25.811,-11.556 14.255,0 0,0"
           style="fill:#367d34;fill-opacity:1;fill-rule:nonzero;stroke:none"
           id="path246" />
      </g>
      <g
         id="g248"
         transform="translate(285.78319,225.88622)">
        <path
           d="m 0,0 -3.062,0 0,3.062 -2.262,0 0,-3.062 -3.062,0 0,-2.262 3.062,0 0,-3.062 2.262,0 0,3.062 3.062,0 L 0,0 Z"
           style="fill:#ffffff;fill-opacity:1;fill-rule:nonzero;stroke:none"
           id="path250" />
      </g>
      <g
         id="g252"
         transform="translate(295.96829,202.31052)">
        <path
           d="M 0,0 C 0,2.695 2.177,4.864 4.864,4.864 7.542,4.864 9.727,2.687 9.727,0 9.727,-2.678 7.533,-4.864 4.864,-4.864 2.177,-4.864 0.009,-2.669 0,0 m 1.417,8.095 1.391,9.718 6.09,0 2.773,-9.718 -10.254,0 z m 16.405,-9.719 c 0,1.779 1.46,3.239 3.239,3.239 1.78,0 3.24,-1.46 3.24,-3.239 0,-1.78 -1.46,-3.24 -3.24,-3.24 -1.779,0 -3.239,1.46 -3.239,3.24 M -3.24,9.719 l 0,-11.343 0.165,0 c 0.751,-3.698 4.017,-6.479 7.939,-6.479 3.922,0 7.187,2.781 7.939,6.479 l 1.779,0 c 0,-3.577 2.903,-6.479 6.479,-6.479 3.577,0 6.479,2.902 6.479,6.479 l 1.625,0 0,11.343 -3.249,0 0,3.239 c 0,0.899 0.735,1.624 1.624,1.624 l 0,3.24 c -2.686,0 -4.863,-2.186 -4.863,-4.864 l 0,-3.248 -8.095,0 -3.239,11.343 -11.334,0 -1.624,-11.334 -1.625,0 z"
           style="fill:#ffffff;fill-opacity:1;fill-rule:nonzero;stroke:none"
           id="path254" />
      </g>
    </g>
  </g>
</svg>
