<?xml version="1.0" encoding="UTF-8" standalone="no"?>
<svg
   xmlns:dc="http://purl.org/dc/elements/1.1/"
   xmlns:cc="http://creativecommons.org/ns#"
   xmlns:rdf="http://www.w3.org/1999/02/22-rdf-syntax-ns#"
   xmlns:svg="http://www.w3.org/2000/svg"
   xmlns="http://www.w3.org/2000/svg"
   version="1.1"
   id="svg10368"
   viewBox="0 0 79.876249 64.676248"
   height="18.253075mm"
   width="22.542852mm">
  <defs
     id="defs10370">
    <clipPath
       id="clipPath452"
       clipPathUnits="userSpaceOnUse">
      <path
         id="path454"
         d="m 0,651.973 898.583,0 L 898.583,0 0,0 0,651.973 Z" />
    </clipPath>
    <clipPath
       id="clipPath468"
       clipPathUnits="userSpaceOnUse">
      <path
         id="path470"
         d="m 362.892,278.011 c 0,-14.255 11.556,-25.811 25.81,-25.811 l 0,0 c 14.255,0 25.811,11.556 25.811,25.811 l 0,0 c 0,14.255 -11.556,25.811 -25.811,25.811 l 0,0 c -14.254,0 -25.81,-11.556 -25.81,-25.811" />
    </clipPath>
  </defs>
  <metadata
     id="metadata10373">
    <rdf:RDF>
      <cc:Work
         rdf:about="">
        <dc:format>image/svg+xml</dc:format>
        <dc:type
           rdf:resource="http://purl.org/dc/dcmitype/StillImage" />
        <dc:title></dc:title>
      </cc:Work>
    </rdf:RDF>
  </metadata>
  <g
     transform="translate(-174.34759,-171.45265)"
     id="layer1">
    <g
       id="g10329"
       transform="matrix(1.25,0,0,-1.25,-263.97416,551.3484)">
      <g
         id="g448">
        <g
           id="g450"
           clip-path="url(#clipPath452)">
          <g
             id="g456"
             transform="translate(388.7474,303.7976)">
            <path
               d="m 0,0 c -6.32,0 -12.107,-2.275 -16.594,-6.046 -1.893,3.659 -5.706,6.165 -10.111,6.165 -6.288,0 -11.385,-5.097 -11.385,-11.385 0,-6.288 5.097,-11.385 11.385,-11.385 0.372,0 0.738,0.02 1.101,0.055 -0.131,-1.054 -0.207,-2.125 -0.207,-3.215 0,-14.255 11.556,-25.811 25.811,-25.811 14.255,0 25.811,11.556 25.811,25.811 C 25.811,-11.556 14.255,0 0,0"
               style="fill:#367d34;fill-opacity:1;fill-rule:nonzero;stroke:none"
               id="path458" />
          </g>
          <g
             id="g460"
             transform="translate(365.7525,290.5189)">
            <path
               d="M 0,0 -2.165,2.165 0,4.33 -1.599,5.93 -3.765,3.765 -5.93,5.93 -7.529,4.33 -5.364,2.165 -7.529,0 -5.93,-1.599 -3.765,0.566 -1.599,-1.599 0,0 Z"
               style="fill:#ffffff;fill-opacity:1;fill-rule:nonzero;stroke:none"
               id="path462" />
          </g>
        </g>
      </g>
      <g
         id="g464">
        <g
           id="g466"
           clip-path="url(#clipPath468)">
          <g
             id="g472"
             transform="translate(385.8977,263.4633)">
            <path
               d="m 0,0 c 0,7.582 5.302,13.729 11.842,13.729 -3.454,4.004 -8.145,6.292 -13.322,6.292 -5.178,0 -9.869,-2.288 -13.323,-6.292 l -17.27,-20.021 33.391,0 C 0.478,-4.407 0,-2.269 0,0"
               style="fill:#ffffff;fill-opacity:1;fill-rule:nonzero;stroke:none"
               id="path474" />
          </g>
          <g
             id="g476"
             transform="translate(399.5124,252.5417)">
            <path
               d="m 0,0 0,39.446 2.324,0 L 4.647,3.43"
               style="fill:#ffffff;fill-opacity:1;fill-rule:nonzero;stroke:none"
               id="path478" />
          </g>
        </g>
      </g>
    </g>
  </g>
</svg>
