<?xml version="1.0" encoding="UTF-8" standalone="no"?>
<svg
   xmlns:dc="http://purl.org/dc/elements/1.1/"
   xmlns:cc="http://creativecommons.org/ns#"
   xmlns:rdf="http://www.w3.org/1999/02/22-rdf-syntax-ns#"
   xmlns:svg="http://www.w3.org/2000/svg"
   xmlns="http://www.w3.org/2000/svg"
   version="1.1"
   id="svg5477"
   viewBox="0 0 80.563002 64.676248"
   height="18.253075mm"
   width="22.73667mm">
  <defs
     id="defs5479">
    <clipPath
       id="clipPath64"
       clipPathUnits="userSpaceOnUse">
      <path
         id="path66"
         d="m 0,651.973 898.583,0 L 898.583,0 0,0 0,651.973 Z" />
    </clipPath>
    <clipPath
       id="clipPath80"
       clipPathUnits="userSpaceOnUse">
      <path
         id="path82"
         d="m 210.088,357.366 c 0,-14.255 11.556,-25.811 25.811,-25.811 l 0,0 c 14.254,0 25.81,11.556 25.81,25.811 l 0,0 c 0,14.255 -11.556,25.811 -25.81,25.811 l 0,0 c -14.255,0 -25.811,-11.556 -25.811,-25.811" />
    </clipPath>
  </defs>
  <metadata
     id="metadata5482">
    <rdf:RDF>
      <cc:Work
         rdf:about="">
        <dc:format>image/svg+xml</dc:format>
        <dc:type
           rdf:resource="http://purl.org/dc/dcmitype/StillImage" />
        <dc:title></dc:title>
      </cc:Work>
    </rdf:RDF>
  </metadata>
  <g
     transform="translate(-196.86136,-148.5955)"
     id="layer1">
    <g
       id="g5330"
       transform="matrix(1.25,0,0,-1.25,-49.711893,627.70138)">
      <g
         id="g60">
        <g
           id="g62"
           clip-path="url(#clipPath64)">
          <g
             id="g68"
             transform="translate(235.3486,383.1657)">
            <path
               d="m 0,0 c -6.32,0 -12.107,-2.275 -16.594,-6.046 -1.893,3.659 -5.706,6.165 -10.111,6.165 -6.288,0 -11.385,-5.097 -11.385,-11.385 0,-6.288 5.097,-11.385 11.385,-11.385 0.372,0 0.738,0.02 1.101,0.055 -0.131,-1.054 -0.207,-2.125 -0.207,-3.215 0,-14.255 11.556,-25.811 25.811,-25.811 14.255,0 25.811,11.556 25.811,25.811 C 25.811,-11.556 14.255,0 0,0"
               style="fill:#367d34;fill-opacity:1;fill-rule:nonzero;stroke:none"
               id="path70" />
          </g>
          <g
             id="g72"
             transform="translate(212.4286,373.3718)">
            <path
               d="m 0,0 -3.062,0 0,3.062 -2.262,0 0,-3.062 -3.062,0 0,-2.262 3.062,0 0,-3.062 2.262,0 0,3.062 3.062,0 L 0,0 Z"
               style="fill:#ffffff;fill-opacity:1;fill-rule:nonzero;stroke:none"
               id="path74" />
          </g>
        </g>
      </g>
      <g
         id="g76">
        <g
           id="g78"
           clip-path="url(#clipPath80)">
          <g
             id="g84"
             transform="translate(222.843,356.4578)">
            <path
               d="m 0,0 0,-9.039 3.543,-0.894 0,9.039 L 0,0 Z"
               style="fill:#ffffff;fill-opacity:1;fill-rule:nonzero;stroke:none"
               id="path86" />
          </g>
          <g
             id="g88"
             transform="translate(244.861,362.9473)">
            <path
               d="m 0,0 -7.781,11.886 -12.482,-3.973 -7.748,-8.012 0,-13.939 1.424,-0.365 0,13.178 6.324,6.556 6.39,-9.701 0,-13.178 1.391,-0.364 L 0,-13.939 0,0 Z"
               style="fill:#ffffff;fill-opacity:1;fill-rule:nonzero;stroke:none"
               id="path90" />
          </g>
          <g
             id="g92"
             transform="translate(247.4185,365.7313)">
            <path
               d="m 0,0 c 0.714,0 1.292,-0.579 1.292,-1.292 0,-0.714 -0.578,-1.293 -1.292,-1.293 -0.714,0 -1.292,0.579 -1.292,1.293 C -1.292,-0.579 -0.714,0 0,0"
               style="fill:#ffffff;fill-opacity:1;fill-rule:nonzero;stroke:none"
               id="path94" />
          </g>
          <g
             id="g96"
             transform="translate(249.575,358.9679)">
            <path
               d="m 0,0 c 0,-0.458 -0.371,-0.83 -0.829,-0.83 l -2.655,0 c -0.458,0 -0.829,0.372 -0.829,0.83 l 0,2.997 c 0,0.458 0.371,0.83 0.83,0.83 l 2.654,0 C -0.371,3.827 0,3.455 0,2.997 L 0,0 Z"
               style="fill:#ffffff;fill-opacity:1;fill-rule:nonzero;stroke:none"
               id="path98" />
          </g>
          <g
             id="g100"
             transform="translate(248.5443,353.7684)">
            <path
               d="m 0,0 c 0,-0.353 -0.286,-0.64 -0.64,-0.64 l -0.972,0 c -0.353,0 -0.64,0.287 -0.64,0.64 l 0,4.325 c 0,0.353 0.287,0.639 0.64,0.639 l 0.972,0 C -0.286,4.964 0,4.678 0,4.325 L 0,0 Z"
               style="fill:#ffffff;fill-opacity:1;fill-rule:nonzero;stroke:none"
               id="path102" />
          </g>
          <g
             id="g104"
             transform="translate(252.8462,365.7313)">
            <path
               d="m 0,0 c 0.714,0 1.292,-0.579 1.292,-1.292 0,-0.714 -0.578,-1.293 -1.292,-1.293 -0.714,0 -1.292,0.579 -1.292,1.293 C -1.292,-0.579 -0.714,0 0,0"
               style="fill:#ffffff;fill-opacity:1;fill-rule:nonzero;stroke:none"
               id="path106" />
          </g>
          <g
             id="g108"
             transform="translate(255.0027,358.9679)">
            <path
               d="m 0,0 c 0,-0.458 -0.371,-0.83 -0.829,-0.83 l -2.655,0 c -0.458,0 -0.829,0.372 -0.829,0.83 l 0,2.997 c 0,0.458 0.371,0.83 0.829,0.83 l 2.655,0 C -0.371,3.827 0,3.455 0,2.997 L 0,0 Z"
               style="fill:#ffffff;fill-opacity:1;fill-rule:nonzero;stroke:none"
               id="path110" />
          </g>
          <g
             id="g112"
             transform="translate(253.9719,353.7684)">
            <path
               d="m 0,0 c 0,-0.353 -0.287,-0.64 -0.64,-0.64 l -0.972,0 c -0.354,0 -0.64,0.287 -0.64,0.64 l 0,4.325 c 0,0.353 0.287,0.639 0.64,0.639 l 0.972,0 C -0.287,4.964 0,4.678 0,4.325 L 0,0 Z"
               style="fill:#ffffff;fill-opacity:1;fill-rule:nonzero;stroke:none"
               id="path114" />
          </g>
          <g
             id="g116"
             transform="translate(258.2736,365.7313)">
            <path
               d="m 0,0 c 0.714,0 1.292,-0.579 1.292,-1.292 0,-0.714 -0.578,-1.293 -1.292,-1.293 -0.714,0 -1.292,0.579 -1.292,1.293 C -1.292,-0.579 -0.714,0 0,0"
               style="fill:#ffffff;fill-opacity:1;fill-rule:nonzero;stroke:none"
               id="path118" />
          </g>
          <g
             id="g120"
             transform="translate(260.4301,358.9679)">
            <path
               d="m 0,0 c 0,-0.458 -0.371,-0.83 -0.829,-0.83 l -2.655,0 c -0.458,0 -0.829,0.372 -0.829,0.83 l 0,2.997 c 0,0.458 0.371,0.83 0.829,0.83 l 2.655,0 C -0.371,3.827 0,3.455 0,2.997 L 0,0 Z"
               style="fill:#ffffff;fill-opacity:1;fill-rule:nonzero;stroke:none"
               id="path122" />
          </g>
          <g
             id="g124"
             transform="translate(259.3993,353.7684)">
            <path
               d="m 0,0 c 0,-0.353 -0.286,-0.64 -0.64,-0.64 l -0.972,0 c -0.353,0 -0.64,0.287 -0.64,0.64 l 0,4.325 c 0,0.353 0.287,0.639 0.64,0.639 l 0.972,0 C -0.286,4.964 0,4.678 0,4.325 L 0,0 Z"
               style="fill:#ffffff;fill-opacity:1;fill-rule:nonzero;stroke:none"
               id="path126" />
          </g>
          <g
             id="g128"
             transform="translate(263.7012,365.7311)">
            <path
               d="m 0,0 c 0.714,0 1.292,-0.578 1.292,-1.292 0,-0.714 -0.578,-1.292 -1.292,-1.292 -0.714,0 -1.292,0.578 -1.292,1.292 C -1.292,-0.578 -0.714,0 0,0"
               style="fill:#ffffff;fill-opacity:1;fill-rule:nonzero;stroke:none"
               id="path130" />
          </g>
          <g
             id="g132"
             transform="translate(265.8578,358.9679)">
            <path
               d="m 0,0 c 0,-0.458 -0.371,-0.83 -0.829,-0.83 l -2.655,0 c -0.458,0 -0.829,0.372 -0.829,0.83 l 0,2.997 c 0,0.458 0.371,0.83 0.829,0.83 l 2.655,0 C -0.371,3.827 0,3.455 0,2.997 L 0,0 Z"
               style="fill:#ffffff;fill-opacity:1;fill-rule:nonzero;stroke:none"
               id="path134" />
          </g>
          <g
             id="g136"
             transform="translate(264.8273,353.7684)">
            <path
               d="m 0,0 c 0,-0.353 -0.287,-0.64 -0.64,-0.64 l -0.972,0 c -0.353,0 -0.64,0.287 -0.64,0.64 l 0,4.325 c 0,0.353 0.287,0.639 0.64,0.639 l 0.972,0 C -0.287,4.964 0,4.678 0,4.325 L 0,0 Z"
               style="fill:#ffffff;fill-opacity:1;fill-rule:nonzero;stroke:none"
               id="path138" />
          </g>
          <g
             id="g140"
             transform="translate(269.1286,365.7311)">
            <path
               d="m 0,0 c 0.714,0 1.292,-0.578 1.292,-1.292 0,-0.714 -0.578,-1.292 -1.292,-1.292 -0.714,0 -1.292,0.578 -1.292,1.292 C -1.292,-0.578 -0.714,0 0,0"
               style="fill:#ffffff;fill-opacity:1;fill-rule:nonzero;stroke:none"
               id="path142" />
          </g>
          <g
             id="g144"
             transform="translate(271.2852,358.9679)">
            <path
               d="m 0,0 c 0,-0.458 -0.371,-0.83 -0.83,-0.83 l -2.654,0 c -0.458,0 -0.829,0.372 -0.829,0.83 l 0,2.997 c 0,0.458 0.371,0.83 0.829,0.83 l 2.654,0 C -0.371,3.827 0,3.455 0,2.997 L 0,0 Z"
               style="fill:#ffffff;fill-opacity:1;fill-rule:nonzero;stroke:none"
               id="path146" />
          </g>
          <g
             id="g148"
             transform="translate(270.2547,353.7684)">
            <path
               d="m 0,0 c 0,-0.353 -0.286,-0.64 -0.64,-0.64 l -0.972,0 c -0.353,0 -0.64,0.287 -0.64,0.64 l 0,4.325 c 0,0.353 0.287,0.639 0.64,0.639 l 0.972,0 C -0.286,4.964 0,4.678 0,4.325 L 0,0 Z"
               style="fill:#ffffff;fill-opacity:1;fill-rule:nonzero;stroke:none"
               id="path150" />
          </g>
          <g
             id="g152"
             transform="translate(250.1325,352.1037)">
            <path
               d="m 0,0 c 0.714,0 1.292,-0.579 1.292,-1.292 0,-0.714 -0.578,-1.293 -1.292,-1.293 -0.714,0 -1.292,0.579 -1.292,1.293 C -1.292,-0.579 -0.714,0 0,0"
               style="fill:#ffffff;fill-opacity:1;fill-rule:nonzero;stroke:none"
               id="path154" />
          </g>
          <g
             id="g156"
             transform="translate(252.2887,345.3403)">
            <path
               d="m 0,0 c 0,-0.458 -0.371,-0.83 -0.829,-0.83 l -2.655,0 c -0.458,0 -0.829,0.372 -0.829,0.83 l 0,2.997 c 0,0.458 0.371,0.829 0.829,0.829 l 2.655,0 C -0.371,3.826 0,3.455 0,2.997 L 0,0 Z"
               style="fill:#ffffff;fill-opacity:1;fill-rule:nonzero;stroke:none"
               id="path158" />
          </g>
          <g
             id="g160"
             transform="translate(251.2582,340.1406)">
            <path
               d="m 0,0 c 0,-0.353 -0.287,-0.64 -0.64,-0.64 l -0.972,0 c -0.353,0 -0.64,0.287 -0.64,0.64 l 0,4.325 c 0,0.353 0.287,0.639 0.64,0.639 l 0.972,0 C -0.287,4.964 0,4.678 0,4.325 L 0,0 Z"
               style="fill:#ffffff;fill-opacity:1;fill-rule:nonzero;stroke:none"
               id="path162" />
          </g>
          <g
             id="g164"
             transform="translate(255.5599,352.1037)">
            <path
               d="m 0,0 c 0.714,0 1.292,-0.579 1.292,-1.292 0,-0.714 -0.578,-1.293 -1.292,-1.293 -0.714,0 -1.292,0.579 -1.292,1.293 C -1.292,-0.579 -0.714,0 0,0"
               style="fill:#ffffff;fill-opacity:1;fill-rule:nonzero;stroke:none"
               id="path166" />
          </g>
          <g
             id="g168"
             transform="translate(257.7164,345.3403)">
            <path
               d="m 0,0 c 0,-0.458 -0.371,-0.83 -0.829,-0.83 l -2.655,0 c -0.458,0 -0.829,0.372 -0.829,0.83 l 0,2.997 c 0,0.458 0.371,0.829 0.829,0.829 l 2.655,0 C -0.371,3.826 0,3.455 0,2.997 L 0,0 Z"
               style="fill:#ffffff;fill-opacity:1;fill-rule:nonzero;stroke:none"
               id="path170" />
          </g>
          <g
             id="g172"
             transform="translate(256.6856,340.1406)">
            <path
               d="m 0,0 c 0,-0.353 -0.286,-0.64 -0.64,-0.64 l -0.972,0 c -0.353,0 -0.64,0.287 -0.64,0.64 l 0,4.325 c 0,0.353 0.287,0.639 0.64,0.639 l 0.972,0 C -0.286,4.964 0,4.678 0,4.325 L 0,0 Z"
               style="fill:#ffffff;fill-opacity:1;fill-rule:nonzero;stroke:none"
               id="path174" />
          </g>
          <g
             id="g176"
             transform="translate(260.9875,352.1037)">
            <path
               d="m 0,0 c 0.714,0 1.292,-0.579 1.292,-1.292 0,-0.714 -0.578,-1.293 -1.292,-1.293 -0.714,0 -1.292,0.579 -1.292,1.293 C -1.292,-0.579 -0.714,0 0,0"
               style="fill:#ffffff;fill-opacity:1;fill-rule:nonzero;stroke:none"
               id="path178" />
          </g>
          <g
             id="g180"
             transform="translate(263.1441,345.3403)">
            <path
               d="m 0,0 c 0,-0.458 -0.371,-0.83 -0.83,-0.83 l -2.654,0 c -0.458,0 -0.829,0.372 -0.829,0.83 l 0,2.997 c 0,0.458 0.371,0.829 0.829,0.829 l 2.654,0 C -0.371,3.826 0,3.455 0,2.997 L 0,0 Z"
               style="fill:#ffffff;fill-opacity:1;fill-rule:nonzero;stroke:none"
               id="path182" />
          </g>
          <g
             id="g184"
             transform="translate(262.1136,340.1406)">
            <path
               d="m 0,0 c 0,-0.353 -0.287,-0.64 -0.64,-0.64 l -0.972,0 c -0.353,0 -0.64,0.287 -0.64,0.64 l 0,4.325 c 0,0.353 0.287,0.639 0.64,0.639 l 0.972,0 C -0.287,4.964 0,4.678 0,4.325 L 0,0 Z"
               style="fill:#ffffff;fill-opacity:1;fill-rule:nonzero;stroke:none"
               id="path186" />
          </g>
          <g
             id="g188"
             transform="translate(266.4149,352.1037)">
            <path
               d="m 0,0 c 0.714,0 1.292,-0.579 1.292,-1.292 0,-0.714 -0.578,-1.293 -1.292,-1.293 -0.714,0 -1.292,0.579 -1.292,1.293 C -1.292,-0.579 -0.714,0 0,0"
               style="fill:#ffffff;fill-opacity:1;fill-rule:nonzero;stroke:none"
               id="path190" />
          </g>
          <g
             id="g192"
             transform="translate(268.5715,345.3403)">
            <path
               d="m 0,0 c 0,-0.458 -0.371,-0.83 -0.83,-0.83 l -2.653,0 c -0.459,0 -0.83,0.372 -0.83,0.83 l 0,2.997 c 0,0.458 0.371,0.829 0.83,0.829 l 2.654,0 C -0.371,3.826 0,3.455 0,2.997 L 0,0 Z"
               style="fill:#ffffff;fill-opacity:1;fill-rule:nonzero;stroke:none"
               id="path194" />
          </g>
          <g
             id="g196"
             transform="translate(267.5407,340.1406)">
            <path
               d="m 0,0 c 0,-0.353 -0.287,-0.64 -0.64,-0.64 l -0.972,0 c -0.353,0 -0.64,0.287 -0.64,0.64 l 0,4.325 c 0,0.353 0.287,0.639 0.64,0.639 l 0.972,0 C -0.287,4.964 0,4.678 0,4.325 L 0,0 Z"
               style="fill:#ffffff;fill-opacity:1;fill-rule:nonzero;stroke:none"
               id="path198" />
          </g>
        </g>
      </g>
    </g>
  </g>
</svg>
