<?xml version="1.0" encoding="UTF-8" standalone="no"?>
<svg
   xmlns:dc="http://purl.org/dc/elements/1.1/"
   xmlns:cc="http://creativecommons.org/ns#"
   xmlns:rdf="http://www.w3.org/1999/02/22-rdf-syntax-ns#"
   xmlns:svg="http://www.w3.org/2000/svg"
   xmlns="http://www.w3.org/2000/svg"
   version="1.1"
   id="svg8370"
   viewBox="0 0 79.876249 64.676248"
   height="18.253075mm"
   width="22.542852mm">
  <defs
     id="defs8372">
    <clipPath
       id="clipPath356"
       clipPathUnits="userSpaceOnUse">
      <path
         id="path358"
         d="m 134.156,278.011 c 0,-14.255 11.556,-25.811 25.811,-25.811 l 0,0 c 14.255,0 25.811,11.556 25.811,25.811 l 0,0 c 0,14.255 -11.556,25.811 -25.811,25.811 l 0,0 c -14.255,0 -25.811,-11.556 -25.811,-25.811" />
    </clipPath>
  </defs>
  <metadata
     id="metadata8375">
    <rdf:RDF>
      <cc:Work
         rdf:about="">
        <dc:format>image/svg+xml</dc:format>
        <dc:type
           rdf:resource="http://purl.org/dc/dcmitype/StillImage" />
        <dc:title></dc:title>
      </cc:Work>
    </rdf:RDF>
  </metadata>
  <g
     transform="translate(-182.91902,-168.59551)"
     id="layer1">
    <g
       id="g8333"
       transform="matrix(1.25,0,0,-1.25,30.611393,548.49126)">
      <g
         id="g340"
         transform="translate(159.9361,303.7976)">
        <path
           d="m 0,0 c -6.32,0 -12.107,-2.275 -16.594,-6.046 -1.893,3.659 -5.706,6.165 -10.111,6.165 -6.288,0 -11.385,-5.097 -11.385,-11.385 0,-6.288 5.097,-11.385 11.385,-11.385 0.372,0 0.738,0.02 1.101,0.055 -0.131,-1.054 -0.207,-2.125 -0.207,-3.215 0,-14.255 11.556,-25.811 25.811,-25.811 14.255,0 25.811,11.556 25.811,25.811 C 25.811,-11.556 14.255,0 0,0"
           style="fill:#367d34;fill-opacity:1;fill-rule:nonzero;stroke:none"
           id="path342" />
      </g>
      <g
         id="g344"
         transform="translate(129.0164,289.4775)">
        <path
           d="M 0,0 -2.972,3.577 -3.984,2.368 0,-2.428 8.553,7.866 7.548,9.076 0,0 Z"
           style="fill:#ffffff;fill-opacity:1;fill-rule:nonzero;stroke:none"
           id="path346" />
      </g>
      <g
         id="g348"
         transform="translate(129.0164,289.4775)">
        <path
           d="M 0,0 -2.972,3.577 -3.984,2.368 0,-2.428 8.553,7.866 7.548,9.076 0,0 Z"
           style="fill:none;stroke:#ffffff;stroke-width:1;stroke-linecap:butt;stroke-linejoin:miter;stroke-miterlimit:10;stroke-dasharray:none;stroke-opacity:1"
           id="path350" />
      </g>
      <g
         id="g352">
        <g
           id="g354"
           clip-path="url(#clipPath356)">
          <g
             id="g360"
             transform="translate(157.1623,263.4633)">
            <path
               d="m 0,0 c 0,7.582 5.302,13.729 11.842,13.729 -3.454,4.004 -8.145,6.292 -13.322,6.292 -5.178,0 -9.869,-2.288 -13.323,-6.292 l -17.27,-20.021 33.391,0 C 0.478,-4.407 0,-2.269 0,0"
               style="fill:#ffffff;fill-opacity:1;fill-rule:nonzero;stroke:none"
               id="path362" />
          </g>
          <g
             id="g364"
             transform="translate(170.777,252.5417)">
            <path
               d="m 0,0 0,39.446 2.324,0 L 4.647,3.43"
               style="fill:#ffffff;fill-opacity:1;fill-rule:nonzero;stroke:none"
               id="path366" />
          </g>
        </g>
      </g>
    </g>
  </g>
</svg>
