<?xml version="1.0" encoding="UTF-8" standalone="no"?>
<svg
   xmlns:dc="http://purl.org/dc/elements/1.1/"
   xmlns:cc="http://creativecommons.org/ns#"
   xmlns:rdf="http://www.w3.org/1999/02/22-rdf-syntax-ns#"
   xmlns:svg="http://www.w3.org/2000/svg"
   xmlns="http://www.w3.org/2000/svg"
   version="1.1"
   id="svg7694"
   viewBox="0 0 79.876249 64.676248"
   height="18.253075mm"
   width="22.542852mm">
  <defs
     id="defs7696" />
  <metadata
     id="metadata7699">
    <rdf:RDF>
      <cc:Work
         rdf:about="">
        <dc:format>image/svg+xml</dc:format>
        <dc:type
           rdf:resource="http://purl.org/dc/dcmitype/StillImage" />
        <dc:title></dc:title>
      </cc:Work>
    </rdf:RDF>
  </metadata>
  <g
     transform="translate(-80.061872,-165.73837)"
     id="layer1">
    <g
       id="g7671"
       transform="matrix(1.25,0,0,-1.25,-353.93649,460.48727)">
      <g
         id="g256"
         transform="translate(385.28869,235.68012)">
        <path
           d="m 0,0 c -6.32,0 -12.107,-2.275 -16.594,-6.046 -1.893,3.659 -5.706,6.165 -10.111,6.165 -6.288,0 -11.385,-5.097 -11.385,-11.385 0,-6.288 5.097,-11.385 11.385,-11.385 0.372,0 0.738,0.02 1.101,0.055 -0.131,-1.054 -0.207,-2.125 -0.207,-3.215 0,-14.255 11.556,-25.811 25.811,-25.811 14.255,0 25.811,11.556 25.811,25.811 C 25.811,-11.556 14.255,0 0,0"
           style="fill:#367d34;fill-opacity:1;fill-rule:nonzero;stroke:none"
           id="path258" />
      </g>
      <g
         id="g260"
         transform="translate(362.36869,225.88622)">
        <path
           d="m 0,0 -3.062,0 0,3.062 -2.262,0 0,-3.062 -3.062,0 0,-2.262 3.062,0 0,-3.062 2.262,0 0,3.062 3.062,0 L 0,0 Z"
           style="fill:#ffffff;fill-opacity:1;fill-rule:nonzero;stroke:none"
           id="path262" />
      </g>
      <g
         id="g264"
         transform="translate(400.70909,199.08362)">
        <path
           d="m 0,0 -4.323,0 0,4.323 c 0.393,-0.118 0.825,-0.157 1.257,-0.157 2.83,0 5.149,2.28 5.149,5.149 0,1.965 -1.1,3.694 -2.751,4.559 -0.55,2.279 -2.594,4.008 -5.07,4.008 -1.101,0 -2.162,-0.353 -2.987,-0.943 0.118,-0.629 0.196,-1.258 0.196,-1.886 0,-3.302 -1.768,-6.21 -4.362,-7.821 0.786,-1.769 2.594,-3.027 4.677,-3.027 0.472,0 0.904,0.079 1.336,0.197 l 0,-4.363 -12.773,0 c 0,0.079 0.039,0.197 0.039,0.275 l 0,7.114 c 0.629,-0.157 1.258,-0.236 1.926,-0.236 4.323,0 7.821,3.498 7.821,7.821 0,3.027 -1.69,5.621 -4.205,6.918 -0.786,3.497 -3.891,6.131 -7.625,6.131 -3.773,0 -6.956,-2.712 -7.664,-6.289 -2.397,-1.336 -3.969,-3.851 -3.969,-6.76 0,-4.323 3.498,-7.821 7.821,-7.821 0.707,0 1.376,0.079 2.044,0.275 l 0,-7.192 c 0,-0.078 0,-0.196 0.039,-0.275 l -7.821,0 c -0.904,0 -1.651,-0.747 -1.651,-1.651 0,-0.904 0.747,-1.65 1.651,-1.65 l 31.245,0 c 0.904,0 1.651,0.746 1.651,1.65 C 1.651,-0.747 0.904,0 0,0"
           style="fill:#ffffff;fill-opacity:1;fill-rule:nonzero;stroke:none"
           id="path266" />
      </g>
    </g>
  </g>
</svg>
