<?xml version="1.0" encoding="UTF-8" standalone="no"?>
<svg
   xmlns:dc="http://purl.org/dc/elements/1.1/"
   xmlns:cc="http://creativecommons.org/ns#"
   xmlns:rdf="http://www.w3.org/1999/02/22-rdf-syntax-ns#"
   xmlns:svg="http://www.w3.org/2000/svg"
   xmlns="http://www.w3.org/2000/svg"
   version="1.1"
   id="svg13566"
   viewBox="0 0 64.527498 64.527498"
   height="18.211094mm"
   width="18.211094mm">
  <defs
     id="defs13568" />
  <metadata
     id="metadata13571">
    <rdf:RDF>
      <cc:Work
         rdf:about="">
        <dc:format>image/svg+xml</dc:format>
        <dc:type
           rdf:resource="http://purl.org/dc/dcmitype/StillImage" />
        <dc:title></dc:title>
      </cc:Work>
    </rdf:RDF>
  </metadata>
  <g
     transform="translate(-144.8791,-194.38417)"
     id="layer1">
    <g
       id="g13527"
       transform="matrix(1.25,0,0,-1.25,-824.38227,623.03929)">
      <g
         id="g312"
         transform="translate(827.0311,317.1131)">
        <path
           d="m 0,0 c 0,-14.255 -11.556,-25.811 -25.811,-25.811 -14.255,0 -25.811,11.556 -25.811,25.811 0,14.255 11.556,25.811 25.811,25.811 C -11.556,25.811 0,14.255 0,0"
           style="fill:#367d34;fill-opacity:1;fill-rule:nonzero;stroke:none"
           id="path314" />
      </g>
      <g
         id="g316"
         transform="translate(819.9917,316.158)">
        <path
           d="m 0,0 c 0,-10.367 -8.404,-18.771 -18.771,-18.771 -10.368,0 -18.772,8.404 -18.772,18.771 0,10.367 8.404,18.771 18.772,18.771 C -8.404,18.771 0,10.367 0,0"
           style="fill:#44ba3b;fill-opacity:1;fill-rule:nonzero;stroke:none"
           id="path318" />
      </g>
      <g
         id="g320"
         transform="translate(819.9917,316.158)">
        <path
           d="m 0,0 c 0,-10.367 -8.404,-18.771 -18.771,-18.771 -10.368,0 -18.772,8.404 -18.772,18.771 0,10.367 8.404,18.771 18.772,18.771 C -8.404,18.771 0,10.367 0,0 Z"
           style="fill:none;stroke:#ffffff;stroke-width:2;stroke-linecap:butt;stroke-linejoin:miter;stroke-miterlimit:10;stroke-dasharray:3.93, 3.93;stroke-dashoffset:0;stroke-opacity:1"
           id="path322" />
      </g>
      <g
         id="g324"
         transform="translate(801.2203,309.9196)">
        <path
           d="m 0,0 c -3.72,0 -6.736,3.016 -6.736,6.736 0,3.72 3.016,6.736 6.736,6.736 3.72,0 6.736,-3.016 6.736,-6.736 C 6.736,3.016 3.72,0 0,0 m 0.048,13.632 -0.096,0 c -11.628,0 -15.629,-6.464 -15.895,-6.916 0.266,-0.452 4.267,-6.916 15.895,-6.916 l 0.096,0 c 11.628,0 15.629,6.464 15.895,6.916 -0.266,0.452 -4.267,6.916 -15.895,6.916"
           style="fill:#ffffff;fill-opacity:1;fill-rule:nonzero;stroke:none"
           id="path326" />
      </g>
      <g
         id="g328"
         transform="translate(817.178,316.6613)">
        <path
           d="M 0,0 C 0,0 -0.005,-0.009 -0.015,-0.026 -0.005,-0.042 0,-0.051 0,-0.051 L 0,0 Z"
           style="fill:#ffffff;fill-opacity:1;fill-rule:nonzero;stroke:none"
           id="path330" />
      </g>
      <g
         id="g332"
         transform="translate(785.2625,316.6098)">
        <path
           d="M 0,0 C 0,0 0.005,0.009 0.015,0.026 0.005,0.042 0,0.051 0,0.051 L 0,0 Z"
           style="fill:#ffffff;fill-opacity:1;fill-rule:nonzero;stroke:none"
           id="path334" />
      </g>
      <g
         id="g336"
         transform="translate(803.8666,316.6355)">
        <path
           d="m 0,0 c 0,-1.461 -1.185,-2.646 -2.646,-2.646 -1.462,0 -2.647,1.185 -2.647,2.646 0,1.462 1.185,2.646 2.647,2.646 C -1.185,2.646 0,1.462 0,0"
           style="fill:#ffffff;fill-opacity:1;fill-rule:nonzero;stroke:none"
           id="path338" />
      </g>
    </g>
  </g>
</svg>
