<?xml version="1.0" encoding="UTF-8" standalone="no"?>
<svg
   xmlns:dc="http://purl.org/dc/elements/1.1/"
   xmlns:cc="http://creativecommons.org/ns#"
   xmlns:rdf="http://www.w3.org/1999/02/22-rdf-syntax-ns#"
   xmlns:svg="http://www.w3.org/2000/svg"
   xmlns="http://www.w3.org/2000/svg"
   version="1.1"
   id="svg9064"
   viewBox="0 0 82.036499 64.676248"
   height="18.253075mm"
   width="23.152523mm">
  <defs
     id="defs9066">
    <clipPath
       id="clipPath372"
       clipPathUnits="userSpaceOnUse">
      <path
         id="path374"
         d="m 0,651.973 898.583,0 L 898.583,0 0,0 0,651.973 Z" />
    </clipPath>
    <clipPath
       id="clipPath404"
       clipPathUnits="userSpaceOnUse">
      <path
         id="path406"
         d="m 209.725,278.011 c 0,-14.255 11.556,-25.811 25.811,-25.811 l 0,0 c 14.254,0 25.81,11.556 25.81,25.811 l 0,0 c 0,14.255 -11.556,25.811 -25.81,25.811 l 0,0 c -14.255,0 -25.811,-11.556 -25.811,-25.811" />
    </clipPath>
  </defs>
  <metadata
     id="metadata9069">
    <rdf:RDF>
      <cc:Work
         rdf:about="">
        <dc:format>image/svg+xml</dc:format>
        <dc:type
           rdf:resource="http://purl.org/dc/dcmitype/StillImage" />
        <dc:title></dc:title>
      </cc:Work>
    </rdf:RDF>
  </metadata>
  <g
     transform="translate(-90.410325,-91.45265)"
     id="layer1">
    <g
       id="g8990"
       transform="matrix(1.25,0,0,-1.25,-156.1678,471.3484)">
      <g
         id="g368">
        <g
           id="g370"
           clip-path="url(#clipPath372)">
          <g
             id="g376"
             transform="translate(235.3525,303.7976)">
            <path
               d="m 0,0 c -6.32,0 -12.107,-2.275 -16.594,-6.046 -1.893,3.659 -5.706,6.165 -10.111,6.165 -6.288,0 -11.385,-5.097 -11.385,-11.385 0,-6.288 5.097,-11.385 11.385,-11.385 0.372,0 0.738,0.02 1.101,0.055 -0.131,-1.054 -0.207,-2.125 -0.207,-3.215 0,-14.255 11.556,-25.811 25.811,-25.811 14.255,0 25.811,11.556 25.811,25.811 C 25.811,-11.556 14.255,0 0,0"
               style="fill:#367d34;fill-opacity:1;fill-rule:nonzero;stroke:none"
               id="path378" />
          </g>
          <g
             id="g380"
             transform="translate(212.7933,294.4974)">
            <path
               d="m 0,0 -4.505,7.093 0,-4.099 -0.001,0 0,4.099 L -9.011,0 l 2.901,0 0,-5.029 3.209,0 0,5.029 L 0,0 Z"
               style="fill:#ffffff;fill-opacity:1;fill-rule:nonzero;stroke:none"
               id="path382" />
          </g>
          <g
             id="g384"
             transform="translate(206.6837,288.8841)">
            <path
               d="m 0,0 0,-1.364 3.208,0 0,1.364"
               style="fill:#ffffff;fill-opacity:1;fill-rule:nonzero;stroke:none"
               id="path386" />
          </g>
          <g
             id="g388"
             transform="translate(206.6837,287.0816)">
            <path
               d="m 0,0 0,-1.364 3.208,0 0,1.364"
               style="fill:#ffffff;fill-opacity:1;fill-rule:nonzero;stroke:none"
               id="path390" />
          </g>
          <g
             id="g392"
             transform="translate(206.6837,285.2304)">
            <path
               d="m 0,0 0,-1.364 3.208,0 0,1.364"
               style="fill:#ffffff;fill-opacity:1;fill-rule:nonzero;stroke:none"
               id="path394" />
          </g>
          <g
             id="g396"
             transform="translate(259.6837,267.4974)">
            <path
               d="m 0,0 0,-5.029 3.208,0 0,5.029"
               style="fill:#ffffff;fill-opacity:1;fill-rule:nonzero;stroke:none"
               id="path398" />
          </g>
        </g>
      </g>
      <g
         id="g400">
        <g
           id="g402"
           clip-path="url(#clipPath404)">
          <g
             id="g408"
             transform="translate(232.7314,263.4633)">
            <path
               d="m 0,0 c 0,7.582 5.302,13.729 11.842,13.729 -3.454,4.004 -8.145,6.292 -13.322,6.292 -5.178,0 -9.869,-2.288 -13.323,-6.292 l -17.27,-20.021 33.391,0 C 0.478,-4.407 0,-2.269 0,0"
               style="fill:#ffffff;fill-opacity:1;fill-rule:nonzero;stroke:none"
               id="path410" />
          </g>
          <g
             id="g412"
             transform="translate(246.3461,252.5417)">
            <path
               d="m 0,0 0,39.446 2.324,0 L 4.647,3.43"
               style="fill:#ffffff;fill-opacity:1;fill-rule:nonzero;stroke:none"
               id="path414" />
          </g>
        </g>
      </g>
    </g>
  </g>
</svg>
