<?xml version="1.0" encoding="utf-8"?>
<!-- Generator: Adobe Illustrator 16.0.0, SVG Export Plug-In . SVG Version: 6.00 Build 0)  -->
<!DOCTYPE svg PUBLIC "-//W3C//DTD SVG 1.1//EN" "http://www.w3.org/Graphics/SVG/1.1/DTD/svg11.dtd">
<svg version="1.1" id="Calque_1" xmlns="http://www.w3.org/2000/svg" xmlns:xlink="http://www.w3.org/1999/xlink" x="0px" y="0px"
	 width="799.371px" height="841.889px" viewBox="21.25 -21.259 799.371 841.889"
	 enable-background="new 21.25 -21.259 799.371 841.889" xml:space="preserve">
<g>
	<g>
		<path d="M765.265,259.708c0,0,18.553-87.931-14.501-126.484C714.6,91.089,641.067,90.001,641.067,90.001
			s-42.623-57.754-96.788-67.234c-67.723-11.863-140.346,1.599-140.346,1.599S362.374-12.51,271.661,3.557
			c-67.946,12.022-74.213,83.254-74.213,83.254s-61.991-2.102-87.1,32.023c-27.227,36.994,1.614,115.269,1.614,115.269
			s-36.979,51.624-25.812,97.668c9.696,39.984,67.747,41.623,67.747,41.623s11.127,63.134,61.304,65.645
			c40.936,2.03,85.5-20.816,85.5-20.816s51.2,23.198,103.239,22.415c53.605-0.808,108.082-25.604,108.082-25.604
			s39.689,37.251,88.73,48.026c49.377,10.848,91.943-44.812,91.943-44.812s61.791,11.942,82.264-35.229
			C797.152,331.867,765.265,259.708,765.265,259.708z M552.336,464.642c0,0-14.748-5.444-27.418-12.814
			c-10.521-6.131-19.361-14.412-19.361-14.412s-1.654,12.23-4.349,20.216c-2.693,7.985-7.993,16.323-7.993,16.323
			s-0.951-5.436-2.198-11.423c-1.559-7.515-3.598-15.907-4.812-15.516c-9.496,3.157-19.353,3.205-19.353,3.205
			s6.539,19.896,3.213,35.212c-5.163,23.653-17.762,60.832-17.762,60.832s-13.006-29.272-17.738-48.025
			c-4.116-16.3-3.229-36.819-3.229-36.819s-20.975-0.64-40.319-3.205c-16.763-2.198-32.271-6.411-32.271-6.411l8.065,30.432
			c0,0-14.517-6.059-25.804-16.003c-10.456-9.225-12.91-22.423-12.91-22.423l-19.353-4.812c0,0,9.24,23.98,33.869,49.633
			c102.304,89.913,83.318,100.408,73.326,188.835c-3.501,38.602-12.294,74.222-19.097,91.76
			c-5.044,13.006-30.647,22.43-30.647,22.43s7.913,6.396,40.336,6.396c15.332,0,58.378-7.69,76.1-9.097
			c10.008-0.808,24.788,3.037,35.477,3.189c12.926,0.184,20.983-3.189,20.983-3.189s-39.346-11.127-45.165-24.021
			c-4.484-9.928-8.073-22.438-8.073-22.438s-11.463-44.54-1.967-146.46C495.373,510.597,552.336,464.642,552.336,464.642z"/>
	</g>
</g>
</svg>
