<?xml version="1.0" encoding="UTF-8" standalone="no"?>
<svg
   xmlns:dc="http://purl.org/dc/elements/1.1/"
   xmlns:cc="http://creativecommons.org/ns#"
   xmlns:rdf="http://www.w3.org/1999/02/22-rdf-syntax-ns#"
   xmlns:svg="http://www.w3.org/2000/svg"
   xmlns="http://www.w3.org/2000/svg"
   version="1.1"
   id="svg11687"
   viewBox="0 0 64.527498 64.527498"
   height="18.211094mm"
   width="18.211094mm">
  <defs
     id="defs11689" />
  <metadata
     id="metadata11692">
    <rdf:RDF>
      <cc:Work
         rdf:about="">
        <dc:format>image/svg+xml</dc:format>
        <dc:type
           rdf:resource="http://purl.org/dc/dcmitype/StillImage" />
        <dc:title></dc:title>
      </cc:Work>
    </rdf:RDF>
  </metadata>
  <g
     transform="translate(-196.30767,-188.66989)"
     id="layer1">
    <g
       id="g11649"
       transform="matrix(1.25,0,0,-1.25,-485.75795,617.32501)">
      <g
         id="g268"
         transform="translate(597.2745,317.1131)">
        <path
           d="m 0,0 c 0,-14.255 -11.556,-25.811 -25.811,-25.811 -14.255,0 -25.811,11.556 -25.811,25.811 0,14.255 11.556,25.811 25.811,25.811 C -11.556,25.811 0,14.255 0,0"
           style="fill:#367d34;fill-opacity:1;fill-rule:nonzero;stroke:none"
           id="path270" />
      </g>
      <g
         id="g272"
         transform="translate(578.8252,327.6831)">
        <path
           d="m 0,0 c -0.392,-0.605 -0.9,-1.099 -1.523,-1.483 -0.624,-0.384 -1.237,-0.576 -1.841,-0.576 -0.77,0 -1.265,0.274 -1.488,0.823 -0.223,0.549 -0.265,1.18 -0.127,1.895 0.17,0.877 0.568,1.592 1.197,2.141 0.628,0.549 1.326,0.824 2.096,0.824 0.768,0 1.352,-0.247 1.75,-0.741 C 0.463,2.389 0.593,1.784 0.454,1.071 0.38,0.686 0.229,0.329 0,0 m -12.298,-24.792 c -1.594,0 -2.64,0.617 -3.142,1.853 -0.502,1.236 -0.604,2.622 -0.306,4.159 0.319,1.648 0.891,3.322 1.715,5.025 0.824,1.701 1.68,3.294 2.572,4.777 0.891,1.483 1.709,2.8 2.455,3.953 0.745,1.154 1.225,2.004 1.442,2.554 -0.077,-0.111 0.075,-0.247 0.455,-0.412 0.38,-0.164 0.785,-0.412 1.216,-0.741 0.43,-0.33 0.814,-0.756 1.153,-1.277 0.337,-0.522 0.427,-1.194 0.268,-2.018 -0.128,-0.659 -0.569,-1.373 -1.321,-2.141 -1.275,-1.758 -2.584,-3.624 -3.927,-5.601 -1.344,-1.977 -2.186,-3.844 -2.526,-5.601 -0.118,-0.605 -0.131,-1.099 -0.04,-1.483 0.09,-0.385 0.436,-0.576 1.041,-0.576 0.933,0 2.195,0.562 3.786,1.688 1.59,1.125 3.179,2.951 4.768,5.478 l 0.181,0.082 c 0.219,0 0.396,-0.082 0.528,-0.247 l 0.133,-0.165 c 0.011,0.054 -0.201,-0.399 -0.634,-1.359 -0.433,-0.961 -1.093,-2.032 -1.981,-3.212 -0.888,-1.182 -1.991,-2.265 -3.307,-3.254 -1.318,-0.988 -2.828,-1.482 -4.529,-1.482"
           style="fill:#ffffff;fill-opacity:1;fill-rule:nonzero;stroke:none"
           id="path274" />
      </g>
    </g>
  </g>
</svg>
