<?xml version="1.0" encoding="UTF-8" standalone="no"?>
<svg
   xmlns:dc="http://purl.org/dc/elements/1.1/"
   xmlns:cc="http://creativecommons.org/ns#"
   xmlns:rdf="http://www.w3.org/1999/02/22-rdf-syntax-ns#"
   xmlns:svg="http://www.w3.org/2000/svg"
   xmlns="http://www.w3.org/2000/svg"
   version="1.1"
   id="svg9724"
   viewBox="0 0 79.876249 64.676248"
   height="18.253075mm"
   width="22.542852mm">
  <defs
     id="defs9726">
    <clipPath
       id="clipPath420"
       clipPathUnits="userSpaceOnUse">
      <path
         id="path422"
         d="m 0,651.973 898.583,0 L 898.583,0 0,0 0,651.973 Z" />
    </clipPath>
    <clipPath
       id="clipPath436"
       clipPathUnits="userSpaceOnUse">
      <path
         id="path438"
         d="m 286.613,278.011 c 0,-14.255 11.556,-25.811 25.811,-25.811 l 0,0 c 14.254,0 25.81,11.556 25.81,25.811 l 0,0 c 0,14.255 -11.556,25.811 -25.81,25.811 l 0,0 c -14.255,0 -25.811,-11.556 -25.811,-25.811" />
    </clipPath>
  </defs>
  <metadata
     id="metadata9729">
    <rdf:RDF>
      <cc:Work
         rdf:about="">
        <dc:format>image/svg+xml</dc:format>
        <dc:type
           rdf:resource="http://purl.org/dc/dcmitype/StillImage" />
        <dc:title></dc:title>
      </cc:Work>
    </rdf:RDF>
  </metadata>
  <g
     transform="translate(-108.6333,-140.02408)"
     id="layer1">
    <g
       id="g9685"
       transform="matrix(1.25,0,0,-1.25,-234.35682,519.91983)">
      <g
         id="g416">
        <g
           id="g418"
           clip-path="url(#clipPath420)">
          <g
             id="g424"
             transform="translate(312.4821,303.7976)">
            <path
               d="m 0,0 c -6.32,0 -12.107,-2.275 -16.594,-6.046 -1.893,3.659 -5.706,6.165 -10.111,6.165 -6.288,0 -11.385,-5.097 -11.385,-11.385 0,-6.288 5.097,-11.385 11.385,-11.385 0.372,0 0.738,0.02 1.101,0.055 -0.131,-1.054 -0.207,-2.125 -0.207,-3.215 0,-14.255 11.556,-25.811 25.811,-25.811 14.255,0 25.811,11.556 25.811,25.811 C 25.811,-11.556 14.255,0 0,0"
               style="fill:#367d34;fill-opacity:1;fill-rule:nonzero;stroke:none"
               id="path426" />
          </g>
          <g
             id="g428"
             transform="translate(286.9522,298.6568)">
            <path
               d="M 0,0 -2.588,0.925 C -3.008,1.079 -3.464,1.044 -3.84,0.854 l -3.782,-1.929 c -0.438,-0.222 -0.583,-0.727 -0.33,-1.148 l 0.617,-1.022 c 0.254,-0.42 0.797,-0.577 1.236,-0.354 l 1.628,0.824 3.383,-5.61 C -1.17,-8.61 -1.153,-8.863 -1.021,-9.083 l 3.251,-5.39 c 0.254,-0.421 0.798,-0.577 1.236,-0.355 l 0.543,0.275 c 0.438,0.222 0.583,0.727 0.329,1.148 L 1.083,-8.031 C 0.95,-7.81 0.725,-7.663 0.474,-7.607 l -3.384,5.61 2.947,1.506 c 0.105,0.053 0.152,0.155 0.145,0.256 C 0.176,-0.133 0.099,-0.028 0,0"
               style="fill:#ffffff;fill-opacity:1;fill-rule:nonzero;stroke:none"
               id="path430" />
          </g>
        </g>
      </g>
      <g
         id="g432">
        <g
           id="g434"
           clip-path="url(#clipPath436)">
          <g
             id="g440"
             transform="translate(309.6193,263.4633)">
            <path
               d="m 0,0 c 0,7.582 5.302,13.729 11.842,13.729 -3.454,4.004 -8.145,6.292 -13.322,6.292 -5.178,0 -9.869,-2.288 -13.323,-6.292 l -17.27,-20.021 33.391,0 C 0.478,-4.407 0,-2.269 0,0"
               style="fill:#ffffff;fill-opacity:1;fill-rule:nonzero;stroke:none"
               id="path442" />
          </g>
          <g
             id="g444"
             transform="translate(323.2339,252.5417)">
            <path
               d="m 0,0 0,39.446 2.324,0 L 4.647,3.43"
               style="fill:#ffffff;fill-opacity:1;fill-rule:nonzero;stroke:none"
               id="path446" />
          </g>
        </g>
      </g>
    </g>
  </g>
</svg>
