<?xml version="1.0" encoding="UTF-8" standalone="no"?>
<svg
   xmlns:dc="http://purl.org/dc/elements/1.1/"
   xmlns:cc="http://creativecommons.org/ns#"
   xmlns:rdf="http://www.w3.org/1999/02/22-rdf-syntax-ns#"
   xmlns:svg="http://www.w3.org/2000/svg"
   xmlns="http://www.w3.org/2000/svg"
   xmlns:sodipodi="http://sodipodi.sourceforge.net/DTD/sodipodi-0.dtd"
   xmlns:inkscape="http://www.inkscape.org/namespaces/inkscape"
   version="1.1"
   x="0px"
   y="0px"
   viewBox="0 0 100 100"
   enable-background="new 0 0 100 100"
   xml:space="preserve"
   id="svg4202"
   inkscape:version="0.91 r13725"
   sodipodi:docname="one_step.svg"><metadata
     id="metadata4212"><rdf:RDF><cc:Work
         rdf:about=""><dc:format>image/svg+xml</dc:format><dc:type
           rdf:resource="http://purl.org/dc/dcmitype/StillImage" /><dc:title></dc:title></cc:Work></rdf:RDF></metadata><defs
     id="defs4210" /><sodipodi:namedview
     pagecolor="#ffffff"
     bordercolor="#666666"
     borderopacity="1"
     objecttolerance="10"
     gridtolerance="10"
     guidetolerance="10"
     inkscape:pageopacity="0"
     inkscape:pageshadow="2"
     inkscape:window-width="1920"
     inkscape:window-height="1016"
     id="namedview4208"
     showgrid="false"
     inkscape:zoom="5.7982756"
     inkscape:cx="47.979446"
     inkscape:cy="45.352726"
     inkscape:window-x="0"
     inkscape:window-y="27"
     inkscape:window-maximized="1"
     inkscape:current-layer="svg4202" /><g
     transform="matrix(2.0384409,0,0,2.0384409,2.0957629,2.0956196)"
     id="g4321"><g
       id="Layer_1_65_"><g
         id="g4324"><path
           inkscape:connector-curvature="0"
           d="m 46.907,20.12 c -0.163,-0.347 -0.511,-0.569 -0.896,-0.569 l -2.927,0 C 41.223,9.452 32.355,1.775 21.726,1.775 9.747,1.775 0,11.522 0,23.501 0,35.48 9.746,45.226 21.726,45.226 c 7.731,0 14.941,-4.161 18.816,-10.857 0.546,-0.945 0.224,-2.152 -0.722,-2.699 -0.944,-0.547 -2.152,-0.225 -2.697,0.72 -3.172,5.481 -9.072,8.887 -15.397,8.887 -9.801,0 -17.776,-7.974 -17.776,-17.774 0,-9.802 7.975,-17.776 17.776,-17.776 8.442,0 15.515,5.921 17.317,13.825 l -2.904,0 c -0.385,0 -0.732,0.222 -0.896,0.569 -0.163,0.347 -0.11,0.756 0.136,1.051 l 4.938,5.925 c 0.188,0.225 0.465,0.355 0.759,0.355 0.293,0 0.571,-0.131 0.758,-0.355 l 4.938,-5.925 c 0.246,-0.296 0.298,-0.705 0.135,-1.052 z"
           id="path4326" /><path
           inkscape:connector-curvature="0"
           d="m 21.726,6.713 c -1.091,0 -1.975,0.884 -1.975,1.975 l 0,11.984 c -0.893,0.626 -1.481,1.658 -1.481,2.83 0,1.906 1.551,3.457 3.457,3.457 0.522,0 1.014,-0.125 1.458,-0.334 l 6.87,3.965 c 0.312,0.181 0.65,0.266 0.986,0.266 0.682,0 1.346,-0.354 1.712,-0.988 0.545,-0.943 0.222,-2.152 -0.724,-2.697 L 25.152,23.2 C 25.06,22.156 24.517,21.244 23.703,20.674 l 0,-11.986 C 23.701,7.598 22.816,6.713 21.726,6.713 Z m 0,18.269 c -0.817,0 -1.481,-0.665 -1.481,-1.48 0,-0.816 0.665,-1.481 1.481,-1.481 0.816,0 1.481,0.665 1.481,1.481 0,0.815 -0.665,1.48 -1.481,1.48 z"
           id="path4328" /></g></g></g></svg>