<?xml version="1.0" encoding="utf-8"?>
<!-- Generator: Adobe Illustrator 16.0.0, SVG Export Plug-In . SVG Version: 6.00 Build 0)  -->
<!DOCTYPE svg PUBLIC "-//W3C//DTD SVG 1.1//EN" "http://www.w3.org/Graphics/SVG/1.1/DTD/svg11.dtd">
<svg version="1.1"
	 id="svg5530" xmlns:dc="http://purl.org/dc/elements/1.1/" xmlns:cc="http://creativecommons.org/ns#" xmlns:rdf="http://www.w3.org/1999/02/22-rdf-syntax-ns#" xmlns:svg="http://www.w3.org/2000/svg" xmlns:sodipodi="http://sodipodi.sourceforge.net/DTD/sodipodi-0.dtd" xmlns:inkscape="http://www.inkscape.org/namespaces/inkscape" sodipodi:docname="urban.svg" inkscape:version="0.91 r13725"
	 xmlns="http://www.w3.org/2000/svg" xmlns:xlink="http://www.w3.org/1999/xlink" x="0px" y="0px" width="799.371px"
	 height="841.889px" viewBox="21.259 -21.259 799.371 841.889" enable-background="new 21.259 -21.259 799.371 841.889"
	 xml:space="preserve">
<sodipodi:namedview  inkscape:cy="50" inkscape:cx="50" inkscape:zoom="2.36" showgrid="false" guidetolerance="10" gridtolerance="10" objecttolerance="10" bordercolor="#666666" pagecolor="#ffffff" borderopacity="1" id="namedview5646" inkscape:current-layer="svg5530" inkscape:window-maximized="1" inkscape:window-y="25" inkscape:window-x="0" inkscape:window-height="706" inkscape:window-width="1366" inkscape:pageshadow="2" inkscape:pageopacity="0">
	</sodipodi:namedview>
<g id="g5642">
	<path id="path5644" d="M606.51,199.843v513.884h-42.814l1.136-673.758H307.882l-1.144,673.758h-42.822v-442.5H21.26v528.145
		h799.369V199.843H606.51z M649.324,256.95h128.475V413.97H649.324V256.95z M649.324,471.069h128.475V628.09H649.324V471.069z
		 M349.561,85.661h171.305v71.375H349.561V85.661z M349.561,228.396h171.305v71.367H349.561V228.396z M349.561,371.148h171.305
		v71.375H349.561V371.148z M349.561,513.884h171.305v71.384H349.561V513.884z M64.082,328.317h57.099v99.922H64.082V328.317z
		 M164.003,328.317h57.099v99.922h-57.099V328.317z M64.082,499.606h57.099v99.922H64.082V499.606z M164.003,499.606h57.099v99.922
		h-57.099V499.606z"/>
</g>
</svg>
