<svg xmlns="http://www.w3.org/2000/svg" xmlns:xlink="http://www.w3.org/1999/xlink" version="1.1" x="0px" y="0px" viewBox="0 0 100 100" enable-background="new 0 0 100 100" xml:space="preserve"><g><path fill-rule="evenodd" clip-rule="evenodd" fill="#000000" d="M20.028,44.993L20.028,44.993   c11.062,0,20.038,8.976,20.038,20.029c0,11.068-8.977,20.037-20.038,20.037C8.968,85.059,0,76.09,0,65.021   C0,53.969,8.968,44.993,20.028,44.993 M19.867,53.701L19.867,53.701c6.161,0,11.164,5.07,11.164,11.32   c0,6.258-5.003,11.338-11.164,11.338c-6.169,0-11.167-5.08-11.167-11.338C8.7,58.771,13.698,53.701,19.867,53.701 M88.014,61.086   L88.014,61.086c6.626,0,11.986,5.375,11.986,11.982c0,6.617-5.36,11.99-11.986,11.99c-6.616,0-11.985-5.373-11.985-11.99   C76.028,66.461,81.397,61.086,88.014,61.086 M88.014,67.98L88.014,67.98c2.723,0,4.932,2.209,4.932,4.926   c0,2.719-2.209,4.928-4.932,4.928c-2.713,0-4.926-2.209-4.926-4.928C83.088,70.189,85.301,67.98,88.014,67.98 M94.09,37.929   c0.661,0,0.983,0.491,0.983,0.992v0.312c-1.149,5.589-2.298,11.177-3.612,16.764h8.378v8.379c-2.624-3.781-6.894-5.92-11.655-5.92   c-5.914-0.16-11.176,3.451-13.641,8.709H44.005v-2.145c0-6.402-2.463-12.482-7.059-17.079c-2.299-2.298-4.601-4.596-6.898-7.055   H10.506c-2.629,2.629-5.418,5.419-8.208,8.208C1.636,48.274,0.818,47.452,0,46.637c2.459-2.477,5.087-5.087,7.716-7.716   c1.314-6.241,2.79-12.491,4.265-18.894v-5.087h36.132v5.087c1.646,4.604,3.281,9.201,4.927,13.967v3.935h23.968V32.01h2.142v-5.079   h1.971v5.079h1.968v5.919h7.063H94.09z M48.113,34.808c-1.811-4.926-3.612-9.854-5.418-14.78H32.511v14.78H48.113z M27.75,34.808   v-14.78H15.924c-0.983,4.927-1.967,9.854-3.12,14.78H27.75z M48.113,44.823v-6.894H32.511c2.137,2.298,4.436,4.596,6.733,6.894   H48.113z"></path></g></svg>