<?xml version="1.0" encoding="UTF-8" standalone="no"?>
<!-- Created with Inkscape (http://www.inkscape.org/) -->

<svg
   xmlns:dc="http://purl.org/dc/elements/1.1/"
   xmlns:cc="http://creativecommons.org/ns#"
   xmlns:rdf="http://www.w3.org/1999/02/22-rdf-syntax-ns#"
   xmlns:svg="http://www.w3.org/2000/svg"
   xmlns="http://www.w3.org/2000/svg"
   xmlns:sodipodi="http://sodipodi.sourceforge.net/DTD/sodipodi-0.dtd"
   xmlns:inkscape="http://www.inkscape.org/namespaces/inkscape"
   width="177.08328mm"
   height="162.71005mm"
   viewBox="0 0 627.46045 576.53167"
   id="svg3672"
   version="1.1"
   inkscape:version="0.91 r13725"
   sodipodi:docname="digue_rehausse.svg">
  <defs
     id="defs3674" />
  <sodipodi:namedview
     id="base"
     pagecolor="#ffffff"
     bordercolor="#666666"
     borderopacity="1.0"
     inkscape:pageopacity="0.0"
     inkscape:pageshadow="2"
     inkscape:zoom="1.4"
     inkscape:cx="285.91771"
     inkscape:cy="392.59436"
     inkscape:document-units="px"
     inkscape:current-layer="layer1"
     showgrid="false"
     fit-margin-top="0"
     fit-margin-left="0"
     fit-margin-right="0"
     fit-margin-bottom="0"
     inkscape:window-width="1920"
     inkscape:window-height="1016"
     inkscape:window-x="0"
     inkscape:window-y="27"
     inkscape:window-maximized="1" />
  <metadata
     id="metadata3677">
    <rdf:RDF>
      <cc:Work
         rdf:about="">
        <dc:format>image/svg+xml</dc:format>
        <dc:type
           rdf:resource="http://purl.org/dc/dcmitype/StillImage" />
        <dc:title></dc:title>
      </cc:Work>
    </rdf:RDF>
  </metadata>
  <g
     inkscape:label="Calque 1"
     inkscape:groupmode="layer"
     id="layer1"
     transform="translate(774.60328,180.08896)">
    <g
       transform="matrix(6.3450983,0,0,6.3450983,-774.68577,-140.20029)"
       id="g3561">
      <path
         style="fill:#000000"
         inkscape:connector-curvature="0"
         id="path3504"
         d="M 55.191,84.111 38.221,13.401 C 38.19,13.27 38.026272,-6.3444133 37.937,-6.2418143 c -4.427975,0 -4.36223,-0.044719 -9.48,-0.044719 l 0,90.4665323 c 0,0.077 0.032,0.152 0.086,0.206 0.055,0.055 0.13,0.086 0.207,0.086 l 26.157,0 c 0.089,0 0.174,-0.041 0.229,-0.11 0.056,-0.073 0.076,-0.164 0.055,-0.251 z"
         sodipodi:nodetypes="ccccsssscc" />
      <path
         style="fill:#000000"
         inkscape:connector-curvature="0"
         id="path3506"
         d="m 57.442,70.155 c 0.841,0.339 1.749,0.524 2.723,0.524 l 0.083,0 -0.006,0 c 0.993,-0.013 1.912,-0.215 2.758,-0.571 0.845,-0.357 1.613,-0.873 2.266,-1.512 0.29,-0.284 0.61,-0.517 0.946,-0.71 1.296,-1.112 2.754,-2.043 4.357,-2.721 1.94,-0.822 4.078,-1.287 6.301,-1.311 l -0.013,0 c 0.075,0 0.143,-10e-4 0.204,-10e-4 2.186,0 4.295,0.427 6.218,1.204 1.925,0.776 3.667,1.898 5.153,3.287 l 0.071,0.068 0.312,0.304 c 0.655,0.611 1.42,1.102 2.255,1.438 0.84,0.339 1.749,0.524 2.723,0.524 l 0.083,0 -0.005,0 c 0.99,-0.013 1.911,-0.215 2.756,-0.571 0.845,-0.358 1.615,-0.874 2.268,-1.512 0.004,-0.001 0.005,-0.005 0.007,-0.006 l 0,-9.216 c -0.002,0.003 -0.003,0.004 -0.007,0.007 -0.652,0.639 -1.423,1.154 -2.268,1.512 -0.844,0.357 -1.763,0.559 -2.752,0.57 l -0.086,0 c -0.972,0 -1.88,-0.187 -2.719,-0.524 -0.835,-0.336 -1.601,-0.826 -2.257,-1.438 l -0.31,-0.303 -0.07,-0.068 c -1.487,-1.39 -3.23,-2.513 -5.156,-3.288 -1.924,-0.777 -4.033,-1.204 -6.218,-1.204 -0.06,0 -0.128,10e-4 -0.203,0.002 l 0.014,-0.001 c -2.223,0.024 -4.36,0.489 -6.301,1.311 -1.604,0.679 -3.064,1.609 -4.361,2.725 -0.335,0.193 -0.652,0.425 -0.942,0.707 -0.652,0.64 -1.422,1.154 -2.266,1.512 -0.845,0.357 -1.763,0.559 -2.753,0.57 l -0.086,0 c -0.972,0 -1.879,-0.187 -2.72,-0.524 -0.834,-0.336 -1.599,-0.826 -2.255,-1.438 L 54.881,59.203 54.804,59.13 c -0.24,-0.226 -0.498,-0.432 -0.752,-0.643 l 2.795,11.395 c 0.196,0.1 0.393,0.192 0.595,0.273 z" />
      <path
         style="fill:#000000"
         inkscape:connector-curvature="0"
         id="path3508"
         d="m 98.895,73.125 c -0.652,0.64 -1.423,1.153 -2.268,1.511 -0.845,0.358 -1.766,0.562 -2.756,0.573 l 0.005,0 -0.083,0 c -0.974,0 -1.883,-0.186 -2.723,-0.525 -0.835,-0.336 -1.6,-0.825 -2.255,-1.438 l -0.312,-0.302 -0.071,-0.069 c -1.486,-1.389 -3.229,-2.511 -5.153,-3.287 -1.923,-0.777 -4.032,-1.204 -6.218,-1.204 -0.062,0 -0.129,0.001 -0.204,0.002 l 0.013,0 c -2.223,0.023 -4.36,0.488 -6.301,1.31 -1.604,0.679 -3.062,1.609 -4.357,2.722 -0.336,0.193 -0.656,0.425 -0.946,0.709 -0.652,0.64 -1.421,1.154 -2.266,1.511 -0.846,0.358 -1.765,0.562 -2.758,0.573 l 0.006,0 -0.083,0 c -0.974,0 -1.882,-0.186 -2.723,-0.525 -0.202,-0.081 -0.399,-0.172 -0.595,-0.271 l 2.487,10.14 c 0.276,0.014 0.552,0.021 0.83,0.021 0.06,0 0.119,0 0.183,-0.002 l 0.005,0 c 2.222,-0.025 4.356,-0.49 6.297,-1.312 1.603,-0.679 3.062,-1.608 4.356,-2.721 0.336,-0.192 0.656,-0.426 0.947,-0.71 0.653,-0.639 1.421,-1.154 2.265,-1.511 0.846,-0.358 1.765,-0.56 2.753,-0.57 l 0.015,-0.002 0.076,0 c 0.97,0 1.878,0.188 2.717,0.525 0.834,0.336 1.597,0.826 2.25,1.435 l 0.312,0.305 0.07,0.068 c 1.489,1.392 3.233,2.514 5.159,3.291 1.926,0.776 4.037,1.203 6.223,1.203 0.061,0 0.119,0 0.183,-0.002 l 0.005,0 c 1.708,-0.019 3.364,-0.301 4.921,-0.802 l 0,-10.65 c -0.002,0 -0.003,0.002 -0.006,0.004 z" />
      <polygon
         style="fill:#000000"
         id="polygon3510"
         points="0.013,76.802 0.013,77.273 0.013,84.366 23.568,84.366 23.568,77.273 23.568,76.802 23.568,69.708 0.013,69.708 " />
      <polygon
         style="fill:#000000"
         id="polygon3512"
         points="0.013,58.288 0.013,58.76 0.013,65.854 23.568,65.854 23.568,58.76 23.568,58.288 23.568,51.195 0.013,51.195 " />
      <polygon
         style="fill:#000000"
         id="polygon3514"
         points="0.013,39.774 0.013,40.248 0.013,47.339 23.568,47.339 23.568,40.248 23.568,39.774 23.568,32.682 0.013,32.682 " />
    </g>
    <g
       id="g4164"
       transform="translate(4,0)">
      <rect
         y="-175.0778"
         x="-582.59802"
         height="568.4881"
         width="6.9184494"
         id="rect4141"
         style="fill:#97d550;fill-opacity:1;stroke:#000000;stroke-width:0.9751913;stroke-opacity:1" />
      <rect
         y="-175.0778"
         x="-570.68738"
         height="568.4881"
         width="6.9184494"
         id="rect4141-9"
         style="fill:#97d550;fill-opacity:1;stroke:#000000;stroke-width:0.9751913;stroke-opacity:1" />
      <rect
         y="-175.0778"
         x="-558.77679"
         height="568.4881"
         width="6.9184494"
         id="rect4141-6"
         style="fill:#97d550;fill-opacity:1;stroke:#000000;stroke-width:0.9751913;stroke-opacity:1" />
    </g>
    <path
       inkscape:connector-curvature="0"
       d="m -507.30606,281.85676 225.52236,-158.01471 -53.05387,-65.846994 -172.46849,118.513734 -66.32819,-65.83975 -66.32819,52.67397 132.65638,118.51375 0,0 z"
       id="path3752"
       style="fill:#008000;fill-rule:evenodd;stroke:#000000;stroke-width:13.6784029;stroke-miterlimit:4;stroke-dasharray:none;stroke-opacity:1" />
  </g>
</svg>
