<?xml version="1.0" encoding="UTF-8" standalone="no"?>
<svg
   xmlns:dc="http://purl.org/dc/elements/1.1/"
   xmlns:cc="http://creativecommons.org/ns#"
   xmlns:rdf="http://www.w3.org/1999/02/22-rdf-syntax-ns#"
   xmlns:svg="http://www.w3.org/2000/svg"
   xmlns="http://www.w3.org/2000/svg"
   xmlns:sodipodi="http://sodipodi.sourceforge.net/DTD/sodipodi-0.dtd"
   xmlns:inkscape="http://www.inkscape.org/namespaces/inkscape"
   version="1.1"
   x="0px"
   y="0px"
   viewBox="0 0 100 100"
   enable-background="new 0 0 100 100"
   xml:space="preserve"
   id="svg5530"
   inkscape:version="0.91 r13725"
   sodipodi:docname="urban.svg"><metadata
     id="metadata5650"><rdf:RDF><cc:Work
         rdf:about=""><dc:format>image/svg+xml</dc:format><dc:type
           rdf:resource="http://purl.org/dc/dcmitype/StillImage" /></cc:Work></rdf:RDF></metadata><defs
     id="defs5648" /><sodipodi:namedview
     pagecolor="#ffffff"
     bordercolor="#666666"
     borderopacity="1"
     objecttolerance="10"
     gridtolerance="10"
     guidetolerance="10"
     inkscape:pageopacity="0"
     inkscape:pageshadow="2"
     inkscape:window-width="1366"
     inkscape:window-height="706"
     id="namedview5646"
     showgrid="false"
     inkscape:zoom="2.36"
     inkscape:cx="50"
     inkscape:cy="50"
     inkscape:window-x="0"
     inkscape:window-y="25"
     inkscape:window-maximized="1"
     inkscape:current-layer="svg5530" /><g
     id="g5642"><path
       fill="#000000"
       d="M73.214,25v64.286h-5.356L68,5H35.856l-0.143,84.286h-5.357V33.93H0V100h100V25H73.214z M78.57,32.144   h16.072v19.643H78.57V32.144z M78.57,58.93h16.072v19.643H78.57V58.93z M41.07,10.716H62.5v8.929H41.07V10.716z M41.07,28.572H62.5   V37.5H41.07V28.572z M41.07,46.43H62.5v8.929H41.07V46.43z M41.07,64.286H62.5v8.93H41.07V64.286z M5.357,41.072H12.5v12.5H5.357   V41.072z M17.857,41.072H25v12.5h-7.143V41.072z M5.357,62.5H12.5V75H5.357V62.5z M17.857,62.5H25V75h-7.143V62.5z"
       id="path5644" /></g></svg>