<?xml version="1.0" encoding="UTF-8" standalone="no"?>
<!-- Created with Inkscape (http://www.inkscape.org/) -->

<svg
   xmlns:dc="http://purl.org/dc/elements/1.1/"
   xmlns:cc="http://creativecommons.org/ns#"
   xmlns:rdf="http://www.w3.org/1999/02/22-rdf-syntax-ns#"
   xmlns:svg="http://www.w3.org/2000/svg"
   xmlns="http://www.w3.org/2000/svg"
   xmlns:sodipodi="http://sodipodi.sourceforge.net/DTD/sodipodi-0.dtd"
   xmlns:inkscape="http://www.inkscape.org/namespaces/inkscape"
   width="177.08328mm"
   height="127.85617mm"
   viewBox="0 0 627.46045 453.03367"
   id="svg3539"
   version="1.1"
   inkscape:version="0.91 r13725"
   sodipodi:docname="digue_entretien.svg">
  <defs
     id="defs3541" />
  <sodipodi:namedview
     id="base"
     pagecolor="#ffffff"
     bordercolor="#666666"
     borderopacity="1.0"
     inkscape:pageopacity="0.0"
     inkscape:pageshadow="2"
     inkscape:zoom="0.35"
     inkscape:cx="-132.69836"
     inkscape:cy="5.9056062"
     inkscape:document-units="px"
     inkscape:current-layer="layer1"
     showgrid="false"
     fit-margin-top="0"
     fit-margin-left="0"
     fit-margin-right="0"
     fit-margin-bottom="0"
     inkscape:window-width="1366"
     inkscape:window-height="706"
     inkscape:window-x="0"
     inkscape:window-y="25"
     inkscape:window-maximized="1" />
  <metadata
     id="metadata3544">
    <rdf:RDF>
      <cc:Work
         rdf:about="">
        <dc:format>image/svg+xml</dc:format>
        <dc:type
           rdf:resource="http://purl.org/dc/dcmitype/StillImage" />
        <dc:title></dc:title>
      </cc:Work>
    </rdf:RDF>
  </metadata>
  <g
     inkscape:label="Calque 1"
     inkscape:groupmode="layer"
     id="layer1"
     transform="translate(-76.269789,-85.234137)">
    <g
       transform="matrix(6.3450983,0,0,6.3450983,76.187303,1.6247771)"
       id="g3561">
      <path
         style="fill:#000000"
         inkscape:connector-curvature="0"
         id="path3504"
         d="M 55.191,84.111 38.221,13.401 C 38.19,13.27 38.073,13.177 37.937,13.177 l -9.187,0 c -0.077,0 -0.152,0.031 -0.207,0.086 -0.054,0.053 -0.086,0.129 -0.086,0.207 l 0,70.71 c 0,0.077 0.032,0.152 0.086,0.206 0.055,0.055 0.13,0.086 0.207,0.086 l 26.157,0 c 0.089,0 0.174,-0.041 0.229,-0.11 0.056,-0.073 0.076,-0.164 0.055,-0.251 z" />
      <path
         style="fill:#000000"
         inkscape:connector-curvature="0"
         id="path3506"
         d="m 57.442,70.155 c 0.841,0.339 1.749,0.524 2.723,0.524 l 0.083,0 -0.006,0 c 0.993,-0.013 1.912,-0.215 2.758,-0.571 0.845,-0.357 1.613,-0.873 2.266,-1.512 0.29,-0.284 0.61,-0.517 0.946,-0.71 1.296,-1.112 2.754,-2.043 4.357,-2.721 1.94,-0.822 4.078,-1.287 6.301,-1.311 l -0.013,0 c 0.075,0 0.143,-10e-4 0.204,-10e-4 2.186,0 4.295,0.427 6.218,1.204 1.925,0.776 3.667,1.898 5.153,3.287 l 0.071,0.068 0.312,0.304 c 0.655,0.611 1.42,1.102 2.255,1.438 0.84,0.339 1.749,0.524 2.723,0.524 l 0.083,0 -0.005,0 c 0.99,-0.013 1.911,-0.215 2.756,-0.571 0.845,-0.358 1.615,-0.874 2.268,-1.512 0.004,-0.001 0.005,-0.005 0.007,-0.006 l 0,-9.216 c -0.002,0.003 -0.003,0.004 -0.007,0.007 -0.652,0.639 -1.423,1.154 -2.268,1.512 -0.844,0.357 -1.763,0.559 -2.752,0.57 l -0.086,0 c -0.972,0 -1.88,-0.187 -2.719,-0.524 -0.835,-0.336 -1.601,-0.826 -2.257,-1.438 l -0.31,-0.303 -0.07,-0.068 c -1.487,-1.39 -3.23,-2.513 -5.156,-3.288 -1.924,-0.777 -4.033,-1.204 -6.218,-1.204 -0.06,0 -0.128,10e-4 -0.203,0.002 l 0.014,-0.001 c -2.223,0.024 -4.36,0.489 -6.301,1.311 -1.604,0.679 -3.064,1.609 -4.361,2.725 -0.335,0.193 -0.652,0.425 -0.942,0.707 -0.652,0.64 -1.422,1.154 -2.266,1.512 -0.845,0.357 -1.763,0.559 -2.753,0.57 l -0.086,0 c -0.972,0 -1.879,-0.187 -2.72,-0.524 -0.834,-0.336 -1.599,-0.826 -2.255,-1.438 L 54.881,59.203 54.804,59.13 c -0.24,-0.226 -0.498,-0.432 -0.752,-0.643 l 2.795,11.395 c 0.196,0.1 0.393,0.192 0.595,0.273 z" />
      <path
         style="fill:#000000"
         inkscape:connector-curvature="0"
         id="path3508"
         d="m 98.895,73.125 c -0.652,0.64 -1.423,1.153 -2.268,1.511 -0.845,0.358 -1.766,0.562 -2.756,0.573 l 0.005,0 -0.083,0 c -0.974,0 -1.883,-0.186 -2.723,-0.525 -0.835,-0.336 -1.6,-0.825 -2.255,-1.438 l -0.312,-0.302 -0.071,-0.069 c -1.486,-1.389 -3.229,-2.511 -5.153,-3.287 -1.923,-0.777 -4.032,-1.204 -6.218,-1.204 -0.062,0 -0.129,0.001 -0.204,0.002 l 0.013,0 c -2.223,0.023 -4.36,0.488 -6.301,1.31 -1.604,0.679 -3.062,1.609 -4.357,2.722 -0.336,0.193 -0.656,0.425 -0.946,0.709 -0.652,0.64 -1.421,1.154 -2.266,1.511 -0.846,0.358 -1.765,0.562 -2.758,0.573 l 0.006,0 -0.083,0 c -0.974,0 -1.882,-0.186 -2.723,-0.525 -0.202,-0.081 -0.399,-0.172 -0.595,-0.271 l 2.487,10.14 c 0.276,0.014 0.552,0.021 0.83,0.021 0.06,0 0.119,0 0.183,-0.002 l 0.005,0 c 2.222,-0.025 4.356,-0.49 6.297,-1.312 1.603,-0.679 3.062,-1.608 4.356,-2.721 0.336,-0.192 0.656,-0.426 0.947,-0.71 0.653,-0.639 1.421,-1.154 2.265,-1.511 0.846,-0.358 1.765,-0.56 2.753,-0.57 l 0.015,-0.002 0.076,0 c 0.97,0 1.878,0.188 2.717,0.525 0.834,0.336 1.597,0.826 2.25,1.435 l 0.312,0.305 0.07,0.068 c 1.489,1.392 3.233,2.514 5.159,3.291 1.926,0.776 4.037,1.203 6.223,1.203 0.061,0 0.119,0 0.183,-0.002 l 0.005,0 c 1.708,-0.019 3.364,-0.301 4.921,-0.802 l 0,-10.65 c -0.002,0 -0.003,0.002 -0.006,0.004 z" />
      <polygon
         style="fill:#000000"
         id="polygon3510"
         points="0.013,84.366 23.568,84.366 23.568,77.273 23.568,76.802 23.568,69.708 0.013,69.708 0.013,76.802 0.013,77.273 " />
      <polygon
         style="fill:#000000"
         id="polygon3512"
         points="0.013,65.854 23.568,65.854 23.568,58.76 23.568,58.288 23.568,51.195 0.013,51.195 0.013,58.288 0.013,58.76 " />
      <polygon
         style="fill:#000000"
         id="polygon3514"
         points="0.013,47.339 23.568,47.339 23.568,40.248 23.568,39.774 23.568,32.682 0.013,32.682 0.013,39.774 0.013,40.248 " />
    </g>
    <g
       transform="matrix(0.49114982,0,0,0.49114982,422.17588,97.016061)"
       id="g3605">
      <path
         inkscape:connector-curvature="0"
         style="fill:#ffff00;stroke:none"
         id="path6"
         d="m 3.46725,458.915 256.005,-443.413 c 5.531,-9.58 15.753,-15.482 26.815,-15.482 11.063,0 21.284,5.902 26.815,15.482 l 256.005,443.413 c 5.531,9.58 5.531,21.384 0,30.964 -5.53,9.58 -15.753,15.482 -26.815,15.482 l -512.01,0 c -11.062,0 -21.284,-5.902 -26.815,-15.482 -5.531,-9.58 -5.531,-21.384 0,-30.964 z" />
      <path
         inkscape:connector-curvature="0"
         style="fill:#f91a0e;stroke:none"
         id="path8"
         d="m 30.19325,492.976 512.191,0 c 6.618,0 12.734,-3.531 16.044,-9.264 3.31,-5.731 3.31,-12.794 0,-18.525 L 302.33225,21.616 c -3.31,-5.732 -9.425,-9.263 -16.044,-9.263 -6.619,0 -12.734,3.531 -16.043,9.263 l -256.096,443.571 c -3.31,5.731 -3.31,12.794 0,18.525 3.309,5.732 9.425,9.264 16.044,9.264 z" />
      <polygon
         transform="translate(-0.93075,-0.23)"
         style="fill:#ffff00;stroke:none"
         id="polygon10"
         points="63.392,456.049 287.219,68.37 511.046,456.049 " />
      <path
         sodipodi:nodetypes="cscccscccccccccccccccsccccccccscccccccccccccccccccccccscccccccccccc"
         inkscape:connector-curvature="0"
         id="polygon12"
         d="m 276.05205,200.1241 c -12.3103,0 -22.2817,9.9714 -22.2817,22.2817 0,6.10159 2.46422,11.64563 6.43616,15.67065 l -2.72837,7.27566 c -5.30924,-1.63553 -10.73682,-2.6517 -14.79618,-0.035 0,0 -34.39335,20.45167 -39.00172,25.14999 -4.60837,4.69833 -16.19534,36.76307 -16.19534,36.76307 -1.69717,6.54145 4.84669,11.72334 11.78797,8.63984 l 18.11919,9.19951 -9.23449,46.41729 -27.49359,44.4235 18.29408,18.64387 -97.80164,0.38477 c -8.775494,-2.27669 -7.197766,3.15432 -4.582267,9.33943 l 387.009057,0 -41.905,-84.01986 c -3.25164,-6.88269 -7.40663,-13.02703 -13.85174,-17.27969 -5.09824,-2.90294 -11.78322,-4.80377 -17.55951,-2.48352 -7.50025,-1.40694 -4.88621,9.05119 -12.17273,6.96085 -4.59242,1.66407 -13.13296,-1.98581 -14.83116,3.56788 -2.50296,4.61154 -2.98938,11.80404 -6.71599,14.86612 -3.19755,0.90946 -11.66609,13.90711 -13.78685,10.61381 l -7.9624,-12.3647 -18.33683,9.58626 -38.23218,-19.13358 -10.21391,-29.80222 -5.00201,-62.26284 c -0.49057,-6.11917 -4.3461,-8.66339 -7.97524,-10.10897 l 2.02879,-7.59047 -0.31481,-0.13992 c 11.98765,-0.36836 21.6171,-10.20469 21.6171,-22.2817 0,-12.3103 -10.00639,-22.2817 -22.31669,-22.2817 z m -37.3577,67.68461 -18.67886,45.43788 -16.99986,-7.41557 9.37442,-20.53275 z m 29.90714,16.72002 3.74277,41.27537 6.50613,18.43399 -15.25091,-8.01021 -5.66661,-17.27969 z m -29.20756,51.73413 19.13358,36.6931 1.32921,61.98301 -53.65798,0.1749 c 10.33387,-9.9209 4.61606,-13.82306 -0.0349,-19.72823 l 25.6397,-38.61695 7.59047,-40.50583 z m 34.66431,17.62947 10.87851,5.52671 c 0.89358,3.77436 3.48744,8.26483 6.96085,10.35382 3.4734,2.08901 7.707,-0.15737 8.67482,-2.37858 l 26.16438,13.29207 -8.98574,5.40428 23.39714,15.58319 -10.31884,3.98763 -3.74276,5.31682 -10.31885,6.68101 -6.54109,17.27969 -16.85994,0 c 0.0289,-12.83425 -7.27971,-11.71242 -11.50813,-13.67683 L 279.48,366.5198 Z"
         style="fill:#000000;stroke:none" />
    </g>
  </g>
</svg>
