<?xml version="1.0" encoding="UTF-8" standalone="no"?>
<!-- Created with Inkscape (http://www.inkscape.org/) -->

<svg
   xmlns:dc="http://purl.org/dc/elements/1.1/"
   xmlns:cc="http://creativecommons.org/ns#"
   xmlns:rdf="http://www.w3.org/1999/02/22-rdf-syntax-ns#"
   xmlns:svg="http://www.w3.org/2000/svg"
   xmlns="http://www.w3.org/2000/svg"
   xmlns:sodipodi="http://sodipodi.sourceforge.net/DTD/sodipodi-0.dtd"
   xmlns:inkscape="http://www.inkscape.org/namespaces/inkscape"
   id="svg2"
   version="1.1"
   inkscape:version="0.91 r13725"
   xml:space="preserve"
   width="882.60376"
   height="163.88637"
   viewBox="0 0 882.6038 163.88637"
   sodipodi:docname="I_boutonSVG.ai.svg"><metadata
     id="metadata8"><rdf:RDF><cc:Work
         rdf:about=""><dc:format>image/svg+xml</dc:format><dc:type
           rdf:resource="http://purl.org/dc/dcmitype/StillImage" /><dc:title></dc:title></cc:Work></rdf:RDF></metadata><defs
     id="defs6"><clipPath
       clipPathUnits="userSpaceOnUse"
       id="clipPath16"><path
         d="m 0,651.973 898.583,0 L 898.583,0 0,0 0,651.973 Z"
         id="path18"
         inkscape:connector-curvature="0" /></clipPath><clipPath
       clipPathUnits="userSpaceOnUse"
       id="clipPath32"><path
         d="m 133.203,357.366 c 0,-14.255 11.555,-25.811 25.81,-25.811 l 0,0 c 14.255,0 25.811,11.556 25.811,25.811 l 0,0 c 0,14.255 -11.556,25.811 -25.811,25.811 l 0,0 c -14.255,0 -25.81,-11.556 -25.81,-25.811"
         id="path34"
         inkscape:connector-curvature="0" /></clipPath><clipPath
       clipPathUnits="userSpaceOnUse"
       id="clipPath64"><path
         d="m 0,651.973 898.583,0 L 898.583,0 0,0 0,651.973 Z"
         id="path66"
         inkscape:connector-curvature="0" /></clipPath><clipPath
       clipPathUnits="userSpaceOnUse"
       id="clipPath80"><path
         d="m 210.088,357.366 c 0,-14.255 11.556,-25.811 25.811,-25.811 l 0,0 c 14.254,0 25.81,11.556 25.81,25.811 l 0,0 c 0,14.255 -11.556,25.811 -25.81,25.811 l 0,0 c -14.255,0 -25.811,-11.556 -25.811,-25.811"
         id="path82"
         inkscape:connector-curvature="0" /></clipPath><clipPath
       clipPathUnits="userSpaceOnUse"
       id="clipPath204"><path
         d="m 0,651.973 898.583,0 L 898.583,0 0,0 0,651.973 Z"
         id="path206"
         inkscape:connector-curvature="0" /></clipPath><clipPath
       clipPathUnits="userSpaceOnUse"
       id="clipPath220"><path
         d="m 286.39,357.366 c 0,-14.255 11.556,-25.811 25.811,-25.811 l 0,0 c 14.254,0 25.81,11.556 25.81,25.811 l 0,0 c 0,14.255 -11.556,25.811 -25.81,25.811 l 0,0 c -14.255,0 -25.811,-11.556 -25.811,-25.811"
         id="path222"
         inkscape:connector-curvature="0" /></clipPath><clipPath
       clipPathUnits="userSpaceOnUse"
       id="clipPath240"><path
         d="m 0,651.973 898.583,0 L 898.583,0 0,0 0,651.973 Z"
         id="path242"
         inkscape:connector-curvature="0" /></clipPath><clipPath
       clipPathUnits="userSpaceOnUse"
       id="clipPath356"><path
         d="m 134.156,278.011 c 0,-14.255 11.556,-25.811 25.811,-25.811 l 0,0 c 14.255,0 25.811,11.556 25.811,25.811 l 0,0 c 0,14.255 -11.556,25.811 -25.811,25.811 l 0,0 c -14.255,0 -25.811,-11.556 -25.811,-25.811"
         id="path358"
         inkscape:connector-curvature="0" /></clipPath><clipPath
       clipPathUnits="userSpaceOnUse"
       id="clipPath372"><path
         d="m 0,651.973 898.583,0 L 898.583,0 0,0 0,651.973 Z"
         id="path374"
         inkscape:connector-curvature="0" /></clipPath><clipPath
       clipPathUnits="userSpaceOnUse"
       id="clipPath404"><path
         d="m 209.725,278.011 c 0,-14.255 11.556,-25.811 25.811,-25.811 l 0,0 c 14.254,0 25.81,11.556 25.81,25.811 l 0,0 c 0,14.255 -11.556,25.811 -25.81,25.811 l 0,0 c -14.255,0 -25.811,-11.556 -25.811,-25.811"
         id="path406"
         inkscape:connector-curvature="0" /></clipPath><clipPath
       clipPathUnits="userSpaceOnUse"
       id="clipPath420"><path
         d="m 0,651.973 898.583,0 L 898.583,0 0,0 0,651.973 Z"
         id="path422"
         inkscape:connector-curvature="0" /></clipPath><clipPath
       clipPathUnits="userSpaceOnUse"
       id="clipPath436"><path
         d="m 286.613,278.011 c 0,-14.255 11.556,-25.811 25.811,-25.811 l 0,0 c 14.254,0 25.81,11.556 25.81,25.811 l 0,0 c 0,14.255 -11.556,25.811 -25.81,25.811 l 0,0 c -14.255,0 -25.811,-11.556 -25.811,-25.811"
         id="path438"
         inkscape:connector-curvature="0" /></clipPath><clipPath
       clipPathUnits="userSpaceOnUse"
       id="clipPath452"><path
         d="m 0,651.973 898.583,0 L 898.583,0 0,0 0,651.973 Z"
         id="path454"
         inkscape:connector-curvature="0" /></clipPath><clipPath
       clipPathUnits="userSpaceOnUse"
       id="clipPath468"><path
         d="m 362.892,278.011 c 0,-14.255 11.556,-25.811 25.81,-25.811 l 0,0 c 14.255,0 25.811,11.556 25.811,25.811 l 0,0 c 0,14.255 -11.556,25.811 -25.811,25.811 l 0,0 c -14.254,0 -25.81,-11.556 -25.81,-25.811"
         id="path470"
         inkscape:connector-curvature="0" /></clipPath><clipPath
       clipPathUnits="userSpaceOnUse"
       id="clipPath484"><path
         d="m 0,651.973 898.583,0 L 898.583,0 0,0 0,651.973 Z"
         id="path486"
         inkscape:connector-curvature="0" /></clipPath><clipPath
       clipPathUnits="userSpaceOnUse"
       id="clipPath500"><path
         d="m 439.239,279.076 c 0,-14.256 11.556,-25.812 25.811,-25.812 l 0,0 c 14.254,0 25.81,11.556 25.81,25.812 l 0,0 c 0,14.255 -11.556,25.811 -25.81,25.811 l 0,0 c -14.255,0 -25.811,-11.556 -25.811,-25.811"
         id="path502"
         inkscape:connector-curvature="0" /></clipPath></defs><sodipodi:namedview
     pagecolor="#ffffff"
     bordercolor="#666666"
     borderopacity="1"
     objecttolerance="10"
     gridtolerance="10"
     guidetolerance="10"
     inkscape:pageopacity="0"
     inkscape:pageshadow="2"
     inkscape:window-width="1920"
     inkscape:window-height="1020"
     id="namedview4"
     showgrid="false"
     inkscape:zoom="0.81906312"
     inkscape:cx="666.61121"
     inkscape:cy="-12.77456"
     inkscape:window-x="0"
     inkscape:window-y="31"
     inkscape:window-maximized="1"
     inkscape:current-layer="g10"
     fit-margin-top="0"
     fit-margin-left="0"
     fit-margin-right="0"
     fit-margin-bottom="0" /><g
     id="g10"
     inkscape:groupmode="layer"
     inkscape:label="boutonSVG"
     transform="matrix(1.25,0,0,-1.25,-151.18513,479.10588)"><g
       id="g4654"><g
         id="g12"><g
           clip-path="url(#clipPath16)"
           id="g14"><g
             transform="translate(159.0381,383.1657)"
             id="g20"><path
               inkscape:connector-curvature="0"
               id="path22"
               style="fill:#367d34;fill-opacity:1;fill-rule:nonzero;stroke:none"
               d="m 0,0 c -6.32,0 -12.107,-2.275 -16.594,-6.046 -1.893,3.659 -5.706,6.165 -10.111,6.165 -6.288,0 -11.385,-5.097 -11.385,-11.385 0,-6.288 5.097,-11.385 11.385,-11.385 0.372,0 0.738,0.02 1.101,0.055 -0.131,-1.054 -0.207,-2.125 -0.207,-3.215 0,-14.255 11.556,-25.811 25.811,-25.811 14.255,0 25.811,11.556 25.811,25.811 C 25.811,-11.556 14.255,0 0,0" /></g><g
             transform="translate(136.1182,373.3718)"
             id="g24"><path
               inkscape:connector-curvature="0"
               id="path26"
               style="fill:#ffffff;fill-opacity:1;fill-rule:nonzero;stroke:none"
               d="m 0,0 -3.062,0 0,3.062 -2.262,0 0,-3.062 -3.062,0 0,-2.262 3.062,0 0,-3.062 2.262,0 0,3.062 3.062,0 L 0,0 Z" /></g></g></g><g
         id="g28"><g
           clip-path="url(#clipPath32)"
           id="g30"><g
             transform="translate(140.7264,348.0707)"
             id="g36"><path
               inkscape:connector-curvature="0"
               id="path38"
               style="fill:#ffffff;fill-opacity:1;fill-rule:nonzero;stroke:none"
               d="m 0,0 0,-9.039 3.543,-0.894 0,9.039 L 0,0 Z" /></g><g
             transform="translate(162.7443,354.5602)"
             id="g40"><path
               inkscape:connector-curvature="0"
               id="path42"
               style="fill:#ffffff;fill-opacity:1;fill-rule:nonzero;stroke:none"
               d="m 0,0 -7.781,11.886 -12.482,-3.973 -7.748,-8.012 0,-13.94 1.424,-0.364 0,13.178 6.324,6.556 6.39,-9.701 0,-13.178 1.391,-0.364 L 0,-13.939 0,0 Z" /></g><g
             transform="translate(164.1579,369.7338)"
             id="g44"><path
               inkscape:connector-curvature="0"
               id="path46"
               style="fill:#ffffff;fill-opacity:1;fill-rule:nonzero;stroke:none"
               d="m 0,0 0,-9.039 3.543,-0.894 0,9.039 L 0,0 Z" /></g><g
             transform="translate(186.1758,376.2233)"
             id="g48"><path
               inkscape:connector-curvature="0"
               id="path50"
               style="fill:#ffffff;fill-opacity:1;fill-rule:nonzero;stroke:none"
               d="m 0,0 -7.781,11.886 -12.482,-3.973 -7.748,-8.012 0,-13.939 1.424,-0.365 0,13.178 6.324,6.556 6.39,-9.701 0,-13.178 1.391,-0.364 L 0,-13.939 0,0 Z" /></g><g
             transform="translate(171.2315,342.3234)"
             id="g52"><path
               inkscape:connector-curvature="0"
               id="path54"
               style="fill:#ffffff;fill-opacity:1;fill-rule:nonzero;stroke:none"
               d="m 0,0 0,-9.039 3.543,-0.894 0,9.039 L 0,0 Z" /></g><g
             transform="translate(193.2494,348.8129)"
             id="g56"><path
               inkscape:connector-curvature="0"
               id="path58"
               style="fill:#ffffff;fill-opacity:1;fill-rule:nonzero;stroke:none"
               d="m 0,0 -7.781,11.886 -12.482,-3.973 -7.748,-8.012 0,-13.94 1.424,-0.364 0,13.178 6.324,6.556 6.39,-9.701 0,-13.178 1.391,-0.364 L 0,-13.939 0,0 Z" /></g></g></g></g><g
       id="g5330"><g
         id="g60"><g
           clip-path="url(#clipPath64)"
           id="g62"><g
             transform="translate(235.3486,383.1657)"
             id="g68"><path
               inkscape:connector-curvature="0"
               id="path70"
               style="fill:#367d34;fill-opacity:1;fill-rule:nonzero;stroke:none"
               d="m 0,0 c -6.32,0 -12.107,-2.275 -16.594,-6.046 -1.893,3.659 -5.706,6.165 -10.111,6.165 -6.288,0 -11.385,-5.097 -11.385,-11.385 0,-6.288 5.097,-11.385 11.385,-11.385 0.372,0 0.738,0.02 1.101,0.055 -0.131,-1.054 -0.207,-2.125 -0.207,-3.215 0,-14.255 11.556,-25.811 25.811,-25.811 14.255,0 25.811,11.556 25.811,25.811 C 25.811,-11.556 14.255,0 0,0" /></g><g
             transform="translate(212.4286,373.3718)"
             id="g72"><path
               inkscape:connector-curvature="0"
               id="path74"
               style="fill:#ffffff;fill-opacity:1;fill-rule:nonzero;stroke:none"
               d="m 0,0 -3.062,0 0,3.062 -2.262,0 0,-3.062 -3.062,0 0,-2.262 3.062,0 0,-3.062 2.262,0 0,3.062 3.062,0 L 0,0 Z" /></g></g></g><g
         id="g76"><g
           clip-path="url(#clipPath80)"
           id="g78"><g
             transform="translate(222.843,356.4578)"
             id="g84"><path
               inkscape:connector-curvature="0"
               id="path86"
               style="fill:#ffffff;fill-opacity:1;fill-rule:nonzero;stroke:none"
               d="m 0,0 0,-9.039 3.543,-0.894 0,9.039 L 0,0 Z" /></g><g
             transform="translate(244.861,362.9473)"
             id="g88"><path
               inkscape:connector-curvature="0"
               id="path90"
               style="fill:#ffffff;fill-opacity:1;fill-rule:nonzero;stroke:none"
               d="m 0,0 -7.781,11.886 -12.482,-3.973 -7.748,-8.012 0,-13.939 1.424,-0.365 0,13.178 6.324,6.556 6.39,-9.701 0,-13.178 1.391,-0.364 L 0,-13.939 0,0 Z" /></g><g
             transform="translate(247.4185,365.7313)"
             id="g92"><path
               inkscape:connector-curvature="0"
               id="path94"
               style="fill:#ffffff;fill-opacity:1;fill-rule:nonzero;stroke:none"
               d="m 0,0 c 0.714,0 1.292,-0.579 1.292,-1.292 0,-0.714 -0.578,-1.293 -1.292,-1.293 -0.714,0 -1.292,0.579 -1.292,1.293 C -1.292,-0.579 -0.714,0 0,0" /></g><g
             transform="translate(249.575,358.9679)"
             id="g96"><path
               inkscape:connector-curvature="0"
               id="path98"
               style="fill:#ffffff;fill-opacity:1;fill-rule:nonzero;stroke:none"
               d="m 0,0 c 0,-0.458 -0.371,-0.83 -0.829,-0.83 l -2.655,0 c -0.458,0 -0.829,0.372 -0.829,0.83 l 0,2.997 c 0,0.458 0.371,0.83 0.83,0.83 l 2.654,0 C -0.371,3.827 0,3.455 0,2.997 L 0,0 Z" /></g><g
             transform="translate(248.5443,353.7684)"
             id="g100"><path
               inkscape:connector-curvature="0"
               id="path102"
               style="fill:#ffffff;fill-opacity:1;fill-rule:nonzero;stroke:none"
               d="m 0,0 c 0,-0.353 -0.286,-0.64 -0.64,-0.64 l -0.972,0 c -0.353,0 -0.64,0.287 -0.64,0.64 l 0,4.325 c 0,0.353 0.287,0.639 0.64,0.639 l 0.972,0 C -0.286,4.964 0,4.678 0,4.325 L 0,0 Z" /></g><g
             transform="translate(252.8462,365.7313)"
             id="g104"><path
               inkscape:connector-curvature="0"
               id="path106"
               style="fill:#ffffff;fill-opacity:1;fill-rule:nonzero;stroke:none"
               d="m 0,0 c 0.714,0 1.292,-0.579 1.292,-1.292 0,-0.714 -0.578,-1.293 -1.292,-1.293 -0.714,0 -1.292,0.579 -1.292,1.293 C -1.292,-0.579 -0.714,0 0,0" /></g><g
             transform="translate(255.0027,358.9679)"
             id="g108"><path
               inkscape:connector-curvature="0"
               id="path110"
               style="fill:#ffffff;fill-opacity:1;fill-rule:nonzero;stroke:none"
               d="m 0,0 c 0,-0.458 -0.371,-0.83 -0.829,-0.83 l -2.655,0 c -0.458,0 -0.829,0.372 -0.829,0.83 l 0,2.997 c 0,0.458 0.371,0.83 0.829,0.83 l 2.655,0 C -0.371,3.827 0,3.455 0,2.997 L 0,0 Z" /></g><g
             transform="translate(253.9719,353.7684)"
             id="g112"><path
               inkscape:connector-curvature="0"
               id="path114"
               style="fill:#ffffff;fill-opacity:1;fill-rule:nonzero;stroke:none"
               d="m 0,0 c 0,-0.353 -0.287,-0.64 -0.64,-0.64 l -0.972,0 c -0.354,0 -0.64,0.287 -0.64,0.64 l 0,4.325 c 0,0.353 0.287,0.639 0.64,0.639 l 0.972,0 C -0.287,4.964 0,4.678 0,4.325 L 0,0 Z" /></g><g
             transform="translate(258.2736,365.7313)"
             id="g116"><path
               inkscape:connector-curvature="0"
               id="path118"
               style="fill:#ffffff;fill-opacity:1;fill-rule:nonzero;stroke:none"
               d="m 0,0 c 0.714,0 1.292,-0.579 1.292,-1.292 0,-0.714 -0.578,-1.293 -1.292,-1.293 -0.714,0 -1.292,0.579 -1.292,1.293 C -1.292,-0.579 -0.714,0 0,0" /></g><g
             transform="translate(260.4301,358.9679)"
             id="g120"><path
               inkscape:connector-curvature="0"
               id="path122"
               style="fill:#ffffff;fill-opacity:1;fill-rule:nonzero;stroke:none"
               d="m 0,0 c 0,-0.458 -0.371,-0.83 -0.829,-0.83 l -2.655,0 c -0.458,0 -0.829,0.372 -0.829,0.83 l 0,2.997 c 0,0.458 0.371,0.83 0.829,0.83 l 2.655,0 C -0.371,3.827 0,3.455 0,2.997 L 0,0 Z" /></g><g
             transform="translate(259.3993,353.7684)"
             id="g124"><path
               inkscape:connector-curvature="0"
               id="path126"
               style="fill:#ffffff;fill-opacity:1;fill-rule:nonzero;stroke:none"
               d="m 0,0 c 0,-0.353 -0.286,-0.64 -0.64,-0.64 l -0.972,0 c -0.353,0 -0.64,0.287 -0.64,0.64 l 0,4.325 c 0,0.353 0.287,0.639 0.64,0.639 l 0.972,0 C -0.286,4.964 0,4.678 0,4.325 L 0,0 Z" /></g><g
             transform="translate(263.7012,365.7311)"
             id="g128"><path
               inkscape:connector-curvature="0"
               id="path130"
               style="fill:#ffffff;fill-opacity:1;fill-rule:nonzero;stroke:none"
               d="m 0,0 c 0.714,0 1.292,-0.578 1.292,-1.292 0,-0.714 -0.578,-1.292 -1.292,-1.292 -0.714,0 -1.292,0.578 -1.292,1.292 C -1.292,-0.578 -0.714,0 0,0" /></g><g
             transform="translate(265.8578,358.9679)"
             id="g132"><path
               inkscape:connector-curvature="0"
               id="path134"
               style="fill:#ffffff;fill-opacity:1;fill-rule:nonzero;stroke:none"
               d="m 0,0 c 0,-0.458 -0.371,-0.83 -0.829,-0.83 l -2.655,0 c -0.458,0 -0.829,0.372 -0.829,0.83 l 0,2.997 c 0,0.458 0.371,0.83 0.829,0.83 l 2.655,0 C -0.371,3.827 0,3.455 0,2.997 L 0,0 Z" /></g><g
             transform="translate(264.8273,353.7684)"
             id="g136"><path
               inkscape:connector-curvature="0"
               id="path138"
               style="fill:#ffffff;fill-opacity:1;fill-rule:nonzero;stroke:none"
               d="m 0,0 c 0,-0.353 -0.287,-0.64 -0.64,-0.64 l -0.972,0 c -0.353,0 -0.64,0.287 -0.64,0.64 l 0,4.325 c 0,0.353 0.287,0.639 0.64,0.639 l 0.972,0 C -0.287,4.964 0,4.678 0,4.325 L 0,0 Z" /></g><g
             transform="translate(269.1286,365.7311)"
             id="g140"><path
               inkscape:connector-curvature="0"
               id="path142"
               style="fill:#ffffff;fill-opacity:1;fill-rule:nonzero;stroke:none"
               d="m 0,0 c 0.714,0 1.292,-0.578 1.292,-1.292 0,-0.714 -0.578,-1.292 -1.292,-1.292 -0.714,0 -1.292,0.578 -1.292,1.292 C -1.292,-0.578 -0.714,0 0,0" /></g><g
             transform="translate(271.2852,358.9679)"
             id="g144"><path
               inkscape:connector-curvature="0"
               id="path146"
               style="fill:#ffffff;fill-opacity:1;fill-rule:nonzero;stroke:none"
               d="m 0,0 c 0,-0.458 -0.371,-0.83 -0.83,-0.83 l -2.654,0 c -0.458,0 -0.829,0.372 -0.829,0.83 l 0,2.997 c 0,0.458 0.371,0.83 0.829,0.83 l 2.654,0 C -0.371,3.827 0,3.455 0,2.997 L 0,0 Z" /></g><g
             transform="translate(270.2547,353.7684)"
             id="g148"><path
               inkscape:connector-curvature="0"
               id="path150"
               style="fill:#ffffff;fill-opacity:1;fill-rule:nonzero;stroke:none"
               d="m 0,0 c 0,-0.353 -0.286,-0.64 -0.64,-0.64 l -0.972,0 c -0.353,0 -0.64,0.287 -0.64,0.64 l 0,4.325 c 0,0.353 0.287,0.639 0.64,0.639 l 0.972,0 C -0.286,4.964 0,4.678 0,4.325 L 0,0 Z" /></g><g
             transform="translate(250.1325,352.1037)"
             id="g152"><path
               inkscape:connector-curvature="0"
               id="path154"
               style="fill:#ffffff;fill-opacity:1;fill-rule:nonzero;stroke:none"
               d="m 0,0 c 0.714,0 1.292,-0.579 1.292,-1.292 0,-0.714 -0.578,-1.293 -1.292,-1.293 -0.714,0 -1.292,0.579 -1.292,1.293 C -1.292,-0.579 -0.714,0 0,0" /></g><g
             transform="translate(252.2887,345.3403)"
             id="g156"><path
               inkscape:connector-curvature="0"
               id="path158"
               style="fill:#ffffff;fill-opacity:1;fill-rule:nonzero;stroke:none"
               d="m 0,0 c 0,-0.458 -0.371,-0.83 -0.829,-0.83 l -2.655,0 c -0.458,0 -0.829,0.372 -0.829,0.83 l 0,2.997 c 0,0.458 0.371,0.829 0.829,0.829 l 2.655,0 C -0.371,3.826 0,3.455 0,2.997 L 0,0 Z" /></g><g
             transform="translate(251.2582,340.1406)"
             id="g160"><path
               inkscape:connector-curvature="0"
               id="path162"
               style="fill:#ffffff;fill-opacity:1;fill-rule:nonzero;stroke:none"
               d="m 0,0 c 0,-0.353 -0.287,-0.64 -0.64,-0.64 l -0.972,0 c -0.353,0 -0.64,0.287 -0.64,0.64 l 0,4.325 c 0,0.353 0.287,0.639 0.64,0.639 l 0.972,0 C -0.287,4.964 0,4.678 0,4.325 L 0,0 Z" /></g><g
             transform="translate(255.5599,352.1037)"
             id="g164"><path
               inkscape:connector-curvature="0"
               id="path166"
               style="fill:#ffffff;fill-opacity:1;fill-rule:nonzero;stroke:none"
               d="m 0,0 c 0.714,0 1.292,-0.579 1.292,-1.292 0,-0.714 -0.578,-1.293 -1.292,-1.293 -0.714,0 -1.292,0.579 -1.292,1.293 C -1.292,-0.579 -0.714,0 0,0" /></g><g
             transform="translate(257.7164,345.3403)"
             id="g168"><path
               inkscape:connector-curvature="0"
               id="path170"
               style="fill:#ffffff;fill-opacity:1;fill-rule:nonzero;stroke:none"
               d="m 0,0 c 0,-0.458 -0.371,-0.83 -0.829,-0.83 l -2.655,0 c -0.458,0 -0.829,0.372 -0.829,0.83 l 0,2.997 c 0,0.458 0.371,0.829 0.829,0.829 l 2.655,0 C -0.371,3.826 0,3.455 0,2.997 L 0,0 Z" /></g><g
             transform="translate(256.6856,340.1406)"
             id="g172"><path
               inkscape:connector-curvature="0"
               id="path174"
               style="fill:#ffffff;fill-opacity:1;fill-rule:nonzero;stroke:none"
               d="m 0,0 c 0,-0.353 -0.286,-0.64 -0.64,-0.64 l -0.972,0 c -0.353,0 -0.64,0.287 -0.64,0.64 l 0,4.325 c 0,0.353 0.287,0.639 0.64,0.639 l 0.972,0 C -0.286,4.964 0,4.678 0,4.325 L 0,0 Z" /></g><g
             transform="translate(260.9875,352.1037)"
             id="g176"><path
               inkscape:connector-curvature="0"
               id="path178"
               style="fill:#ffffff;fill-opacity:1;fill-rule:nonzero;stroke:none"
               d="m 0,0 c 0.714,0 1.292,-0.579 1.292,-1.292 0,-0.714 -0.578,-1.293 -1.292,-1.293 -0.714,0 -1.292,0.579 -1.292,1.293 C -1.292,-0.579 -0.714,0 0,0" /></g><g
             transform="translate(263.1441,345.3403)"
             id="g180"><path
               inkscape:connector-curvature="0"
               id="path182"
               style="fill:#ffffff;fill-opacity:1;fill-rule:nonzero;stroke:none"
               d="m 0,0 c 0,-0.458 -0.371,-0.83 -0.83,-0.83 l -2.654,0 c -0.458,0 -0.829,0.372 -0.829,0.83 l 0,2.997 c 0,0.458 0.371,0.829 0.829,0.829 l 2.654,0 C -0.371,3.826 0,3.455 0,2.997 L 0,0 Z" /></g><g
             transform="translate(262.1136,340.1406)"
             id="g184"><path
               inkscape:connector-curvature="0"
               id="path186"
               style="fill:#ffffff;fill-opacity:1;fill-rule:nonzero;stroke:none"
               d="m 0,0 c 0,-0.353 -0.287,-0.64 -0.64,-0.64 l -0.972,0 c -0.353,0 -0.64,0.287 -0.64,0.64 l 0,4.325 c 0,0.353 0.287,0.639 0.64,0.639 l 0.972,0 C -0.287,4.964 0,4.678 0,4.325 L 0,0 Z" /></g><g
             transform="translate(266.4149,352.1037)"
             id="g188"><path
               inkscape:connector-curvature="0"
               id="path190"
               style="fill:#ffffff;fill-opacity:1;fill-rule:nonzero;stroke:none"
               d="m 0,0 c 0.714,0 1.292,-0.579 1.292,-1.292 0,-0.714 -0.578,-1.293 -1.292,-1.293 -0.714,0 -1.292,0.579 -1.292,1.293 C -1.292,-0.579 -0.714,0 0,0" /></g><g
             transform="translate(268.5715,345.3403)"
             id="g192"><path
               inkscape:connector-curvature="0"
               id="path194"
               style="fill:#ffffff;fill-opacity:1;fill-rule:nonzero;stroke:none"
               d="m 0,0 c 0,-0.458 -0.371,-0.83 -0.83,-0.83 l -2.653,0 c -0.459,0 -0.83,0.372 -0.83,0.83 l 0,2.997 c 0,0.458 0.371,0.829 0.83,0.829 l 2.654,0 C -0.371,3.826 0,3.455 0,2.997 L 0,0 Z" /></g><g
             transform="translate(267.5407,340.1406)"
             id="g196"><path
               inkscape:connector-curvature="0"
               id="path198"
               style="fill:#ffffff;fill-opacity:1;fill-rule:nonzero;stroke:none"
               d="m 0,0 c 0,-0.353 -0.287,-0.64 -0.64,-0.64 l -0.972,0 c -0.353,0 -0.64,0.287 -0.64,0.64 l 0,4.325 c 0,0.353 0.287,0.639 0.64,0.639 l 0.972,0 C -0.287,4.964 0,4.678 0,4.325 L 0,0 Z" /></g></g></g></g><g
       id="g6190"><g
         id="g200"><g
           clip-path="url(#clipPath204)"
           id="g202"><g
             transform="translate(312.2092,383.1657)"
             id="g208"><path
               inkscape:connector-curvature="0"
               id="path210"
               style="fill:#367d34;fill-opacity:1;fill-rule:nonzero;stroke:none"
               d="m 0,0 c -6.32,0 -12.107,-2.275 -16.594,-6.046 -1.893,3.659 -5.706,6.165 -10.111,6.165 -6.288,0 -11.385,-5.097 -11.385,-11.385 0,-6.288 5.097,-11.385 11.385,-11.385 0.372,0 0.738,0.02 1.101,0.055 -0.131,-1.054 -0.207,-2.125 -0.207,-3.215 0,-14.255 11.556,-25.811 25.811,-25.811 14.255,0 25.811,11.556 25.811,25.811 C 25.811,-11.556 14.255,0 0,0" /></g><g
             transform="translate(289.2892,373.3718)"
             id="g212"><path
               inkscape:connector-curvature="0"
               id="path214"
               style="fill:#ffffff;fill-opacity:1;fill-rule:nonzero;stroke:none"
               d="m 0,0 -3.062,0 0,3.062 -2.262,0 0,-3.062 -3.062,0 0,-2.262 3.062,0 0,-3.062 2.262,0 0,3.062 3.062,0 L 0,0 Z" /></g></g></g><g
         id="g216"><g
           clip-path="url(#clipPath220)"
           id="g218"><g
             transform="translate(328.1428,347.6203)"
             id="g224"><path
               inkscape:connector-curvature="0"
               id="path226"
               style="fill:#ffffff;fill-opacity:1;fill-rule:nonzero;stroke:none"
               d="m 0,0 0,-6.129 2.402,-0.606 0,6.129 L 0,0 Z" /></g><g
             transform="translate(343.0723,352.0206)"
             id="g228"><path
               inkscape:connector-curvature="0"
               id="path230"
               style="fill:#ffffff;fill-opacity:1;fill-rule:nonzero;stroke:none"
               d="m 0,0 -5.276,8.06 -8.464,-2.694 -5.253,-5.433 0,-9.452 0.965,-0.247 0,8.935 4.288,4.446 4.333,-6.578 0,-8.936 0.943,-0.247 L 0,-9.452 0,0 Z" /></g><g
             transform="translate(319.0221,349.5872)"
             id="g232"><path
               inkscape:connector-curvature="0"
               id="path234"
               style="fill:#ffffff;fill-opacity:1;fill-rule:nonzero;stroke:none"
               d="m 0,0 c 0,9.569 6.692,17.326 14.946,17.326 -4.36,5.054 -10.28,7.942 -16.814,7.942 -6.535,0 -12.455,-2.888 -16.814,-7.942 l -21.796,-25.267 42.142,0 C 0.603,-5.562 0,-2.863 0,0" /></g></g></g></g><g
       id="g244"
       transform="translate(388.7947,383.1657)"><path
         d="m 0,0 c -6.32,0 -12.107,-2.275 -16.594,-6.046 -1.893,3.659 -5.706,6.165 -10.111,6.165 -6.288,0 -11.385,-5.097 -11.385,-11.385 0,-6.288 5.097,-11.385 11.385,-11.385 0.372,0 0.738,0.02 1.101,0.055 -0.131,-1.054 -0.207,-2.125 -0.207,-3.215 0,-14.255 11.556,-25.811 25.811,-25.811 14.255,0 25.811,11.556 25.811,25.811 C 25.811,-11.556 14.255,0 0,0"
         style="fill:#367d34;fill-opacity:1;fill-rule:nonzero;stroke:none"
         id="path246"
         inkscape:connector-curvature="0" /></g><g
       id="g248"
       transform="translate(365.8747,373.3718)"><path
         d="m 0,0 -3.062,0 0,3.062 -2.262,0 0,-3.062 -3.062,0 0,-2.262 3.062,0 0,-3.062 2.262,0 0,3.062 3.062,0 L 0,0 Z"
         style="fill:#ffffff;fill-opacity:1;fill-rule:nonzero;stroke:none"
         id="path250"
         inkscape:connector-curvature="0" /></g><g
       id="g252"
       transform="translate(376.0598,349.7961)"><path
         d="M 0,0 C 0,2.695 2.177,4.864 4.864,4.864 7.542,4.864 9.727,2.687 9.727,0 9.727,-2.678 7.533,-4.864 4.864,-4.864 2.177,-4.864 0.009,-2.669 0,0 m 1.417,8.095 1.391,9.718 6.09,0 2.773,-9.718 -10.254,0 z m 16.405,-9.719 c 0,1.779 1.46,3.239 3.239,3.239 1.78,0 3.24,-1.46 3.24,-3.239 0,-1.78 -1.46,-3.24 -3.24,-3.24 -1.779,0 -3.239,1.46 -3.239,3.24 M -3.24,9.719 l 0,-11.343 0.165,0 c 0.751,-3.698 4.017,-6.479 7.939,-6.479 3.922,0 7.187,2.781 7.939,6.479 l 1.779,0 c 0,-3.577 2.903,-6.479 6.479,-6.479 3.577,0 6.479,2.902 6.479,6.479 l 1.625,0 0,11.343 -3.249,0 0,3.239 c 0,0.899 0.735,1.624 1.624,1.624 l 0,3.24 c -2.686,0 -4.863,-2.186 -4.863,-4.864 l 0,-3.248 -8.095,0 -3.239,11.343 -11.334,0 -1.624,-11.334 -1.625,0 z"
         style="fill:#ffffff;fill-opacity:1;fill-rule:nonzero;stroke:none"
         id="path254"
         inkscape:connector-curvature="0" /></g><g
       id="g256"
       transform="translate(465.3802,383.1657)"><path
         d="m 0,0 c -6.32,0 -12.107,-2.275 -16.594,-6.046 -1.893,3.659 -5.706,6.165 -10.111,6.165 -6.288,0 -11.385,-5.097 -11.385,-11.385 0,-6.288 5.097,-11.385 11.385,-11.385 0.372,0 0.738,0.02 1.101,0.055 -0.131,-1.054 -0.207,-2.125 -0.207,-3.215 0,-14.255 11.556,-25.811 25.811,-25.811 14.255,0 25.811,11.556 25.811,25.811 C 25.811,-11.556 14.255,0 0,0"
         style="fill:#367d34;fill-opacity:1;fill-rule:nonzero;stroke:none"
         id="path258"
         inkscape:connector-curvature="0" /></g><g
       id="g260"
       transform="translate(442.4602,373.3718)"><path
         d="m 0,0 -3.062,0 0,3.062 -2.262,0 0,-3.062 -3.062,0 0,-2.262 3.062,0 0,-3.062 2.262,0 0,3.062 3.062,0 L 0,0 Z"
         style="fill:#ffffff;fill-opacity:1;fill-rule:nonzero;stroke:none"
         id="path262"
         inkscape:connector-curvature="0" /></g><g
       id="g264"
       transform="translate(480.8006,346.5692)"><path
         d="m 0,0 -4.323,0 0,4.323 c 0.393,-0.118 0.825,-0.157 1.257,-0.157 2.83,0 5.149,2.28 5.149,5.149 0,1.965 -1.1,3.694 -2.751,4.559 -0.55,2.279 -2.594,4.008 -5.07,4.008 -1.101,0 -2.162,-0.353 -2.987,-0.943 0.118,-0.629 0.196,-1.258 0.196,-1.886 0,-3.302 -1.768,-6.21 -4.362,-7.821 0.786,-1.769 2.594,-3.027 4.677,-3.027 0.472,0 0.904,0.079 1.336,0.197 l 0,-4.363 -12.773,0 c 0,0.079 0.039,0.197 0.039,0.275 l 0,7.114 c 0.629,-0.157 1.258,-0.236 1.926,-0.236 4.323,0 7.821,3.498 7.821,7.821 0,3.027 -1.69,5.621 -4.205,6.918 -0.786,3.497 -3.891,6.131 -7.625,6.131 -3.773,0 -6.956,-2.712 -7.664,-6.289 -2.397,-1.336 -3.969,-3.851 -3.969,-6.76 0,-4.323 3.498,-7.821 7.821,-7.821 0.707,0 1.376,0.079 2.044,0.275 l 0,-7.192 c 0,-0.078 0,-0.196 0.039,-0.275 l -7.821,0 c -0.904,0 -1.651,-0.747 -1.651,-1.651 0,-0.904 0.747,-1.65 1.651,-1.65 l 31.245,0 c 0.904,0 1.651,0.746 1.651,1.65 C 1.651,-0.747 0.904,0 0,0"
         style="fill:#ffffff;fill-opacity:1;fill-rule:nonzero;stroke:none"
         id="path266"
         inkscape:connector-curvature="0" /></g><g
       id="g11649"><g
         transform="translate(597.2745,317.1131)"
         id="g268"><path
           inkscape:connector-curvature="0"
           id="path270"
           style="fill:#367d34;fill-opacity:1;fill-rule:nonzero;stroke:none"
           d="m 0,0 c 0,-14.255 -11.556,-25.811 -25.811,-25.811 -14.255,0 -25.811,11.556 -25.811,25.811 0,14.255 11.556,25.811 25.811,25.811 C -11.556,25.811 0,14.255 0,0" /></g><g
         transform="translate(578.8252,327.6831)"
         id="g272"><path
           inkscape:connector-curvature="0"
           id="path274"
           style="fill:#ffffff;fill-opacity:1;fill-rule:nonzero;stroke:none"
           d="m 0,0 c -0.392,-0.605 -0.9,-1.099 -1.523,-1.483 -0.624,-0.384 -1.237,-0.576 -1.841,-0.576 -0.77,0 -1.265,0.274 -1.488,0.823 -0.223,0.549 -0.265,1.18 -0.127,1.895 0.17,0.877 0.568,1.592 1.197,2.141 0.628,0.549 1.326,0.824 2.096,0.824 0.768,0 1.352,-0.247 1.75,-0.741 C 0.463,2.389 0.593,1.784 0.454,1.071 0.38,0.686 0.229,0.329 0,0 m -12.298,-24.792 c -1.594,0 -2.64,0.617 -3.142,1.853 -0.502,1.236 -0.604,2.622 -0.306,4.159 0.319,1.648 0.891,3.322 1.715,5.025 0.824,1.701 1.68,3.294 2.572,4.777 0.891,1.483 1.709,2.8 2.455,3.953 0.745,1.154 1.225,2.004 1.442,2.554 -0.077,-0.111 0.075,-0.247 0.455,-0.412 0.38,-0.164 0.785,-0.412 1.216,-0.741 0.43,-0.33 0.814,-0.756 1.153,-1.277 0.337,-0.522 0.427,-1.194 0.268,-2.018 -0.128,-0.659 -0.569,-1.373 -1.321,-2.141 -1.275,-1.758 -2.584,-3.624 -3.927,-5.601 -1.344,-1.977 -2.186,-3.844 -2.526,-5.601 -0.118,-0.605 -0.131,-1.099 -0.04,-1.483 0.09,-0.385 0.436,-0.576 1.041,-0.576 0.933,0 2.195,0.562 3.786,1.688 1.59,1.125 3.179,2.951 4.768,5.478 l 0.181,0.082 c 0.219,0 0.396,-0.082 0.528,-0.247 l 0.133,-0.165 c 0.011,0.054 -0.201,-0.399 -0.634,-1.359 -0.433,-0.961 -1.093,-2.032 -1.981,-3.212 -0.888,-1.182 -1.991,-2.265 -3.307,-3.254 -1.318,-0.988 -2.828,-1.482 -4.529,-1.482" /></g></g><g
       id="g12268"><g
         transform="translate(673.86,317.1131)"
         id="g276"><path
           inkscape:connector-curvature="0"
           id="path278"
           style="fill:#367d34;fill-opacity:1;fill-rule:nonzero;stroke:none"
           d="m 0,0 c 0,-14.255 -11.556,-25.811 -25.811,-25.811 -14.255,0 -25.811,11.556 -25.811,25.811 0,14.255 11.556,25.811 25.811,25.811 C -11.556,25.811 0,14.255 0,0" /></g><g
         transform="translate(658.1404,314.2062)"
         id="g280"><path
           inkscape:connector-curvature="0"
           id="path282"
           style="fill:#ffffff;fill-opacity:1;fill-rule:nonzero;stroke:none"
           d="m 0,0 c -3.382,-3.381 -9.235,-2.568 -11.565,1.613 -1.244,2.235 -1.208,5.031 0.08,7.237 1.175,2.02 3.278,3.375 5.603,3.6 2.986,0.29 5.899,-1.283 7.309,-4.025 C 2.76,5.596 2.174,2.134 -0.006,0 c -2.851,-2.868 2.053,2.134 0,0 L 0,0 Z m 6.039,7.524 0,0 c -1.002,4.767 -5.032,8.462 -9.867,9.03 -4.571,0.539 -9.101,-1.782 -11.352,-5.771 -1.841,-3.29 -1.92,-7.42 -0.21,-10.782 l -8.451,-8.453 c -0.877,-0.956 -0.916,-2.367 -0.017,-3.196 l 1.85,-1.796 c 0.876,-0.896 2.309,-0.896 3.206,0 l 8.435,8.396 c 3.772,-1.924 8.464,-1.538 11.873,0.898 3.658,2.565 5.415,7.31 4.517,11.675 l 0.016,0 0,-0.001 z" /></g></g><g
       id="g12868"><g
         transform="translate(750.4456,317.1131)"
         id="g284"><path
           inkscape:connector-curvature="0"
           id="path286"
           style="fill:#367d34;fill-opacity:1;fill-rule:nonzero;stroke:none"
           d="m 0,0 c 0,-14.255 -11.556,-25.811 -25.811,-25.811 -14.255,0 -25.811,11.556 -25.811,25.811 0,14.255 11.556,25.811 25.811,25.811 C -11.556,25.811 0,14.255 0,0" /></g><g
         transform="translate(743.4062,316.158)"
         id="g288"><path
           inkscape:connector-curvature="0"
           id="path290"
           style="fill:#ed2226;fill-opacity:1;fill-rule:nonzero;stroke:none"
           d="m 0,0 c 0,-10.367 -8.404,-18.771 -18.771,-18.771 -10.368,0 -18.772,8.404 -18.772,18.771 0,10.367 8.404,18.771 18.772,18.771 C -8.404,18.771 0,10.367 0,0" /></g><g
         transform="translate(743.4062,316.158)"
         id="g292"><path
           inkscape:connector-curvature="0"
           id="path294"
           style="fill:none;stroke:#ffffff;stroke-width:2;stroke-linecap:butt;stroke-linejoin:miter;stroke-miterlimit:10;stroke-dasharray:3.93, 3.93;stroke-dashoffset:0;stroke-opacity:1"
           d="m 0,0 c 0,-10.367 -8.404,-18.771 -18.771,-18.771 -10.368,0 -18.772,8.404 -18.772,18.771 0,10.367 8.404,18.771 18.772,18.771 C -8.404,18.771 0,10.367 0,0 Z" /></g><g
         transform="translate(724.6348,309.9196)"
         id="g296"><path
           inkscape:connector-curvature="0"
           id="path298"
           style="fill:#ffffff;fill-opacity:1;fill-rule:nonzero;stroke:none"
           d="m 0,0 c -3.72,0 -6.736,3.016 -6.736,6.736 0,3.72 3.016,6.736 6.736,6.736 3.72,0 6.736,-3.016 6.736,-6.736 C 6.736,3.016 3.72,0 0,0 m 0.048,13.632 -0.096,0 c -11.628,0 -15.629,-6.464 -15.895,-6.916 0.266,-0.452 4.267,-6.916 15.895,-6.916 l 0.096,0 c 11.628,0 15.629,6.464 15.895,6.916 -0.266,0.452 -4.267,6.916 -15.895,6.916" /></g><g
         transform="translate(740.5925,316.6613)"
         id="g300"><path
           inkscape:connector-curvature="0"
           id="path302"
           style="fill:#ffffff;fill-opacity:1;fill-rule:nonzero;stroke:none"
           d="M 0,0 C 0,0 -0.005,-0.009 -0.015,-0.026 -0.005,-0.042 0,-0.051 0,-0.051 L 0,0 Z" /></g><g
         transform="translate(708.677,316.6098)"
         id="g304"><path
           inkscape:connector-curvature="0"
           id="path306"
           style="fill:#ffffff;fill-opacity:1;fill-rule:nonzero;stroke:none"
           d="M 0,0 C 0,0 0.005,0.009 0.015,0.026 0.005,0.042 0,0.051 0,0.051 L 0,0 Z" /></g><g
         transform="translate(727.2811,316.6355)"
         id="g308"><path
           inkscape:connector-curvature="0"
           id="path310"
           style="fill:#ffffff;fill-opacity:1;fill-rule:nonzero;stroke:none"
           d="m 0,0 c 0,-1.461 -1.185,-2.646 -2.646,-2.646 -1.462,0 -2.647,1.185 -2.647,2.646 0,1.462 1.185,2.646 2.647,2.646 C -1.185,2.646 0,1.462 0,0" /></g></g><g
       id="g13527"><g
         transform="translate(827.0311,317.1131)"
         id="g312"><path
           inkscape:connector-curvature="0"
           id="path314"
           style="fill:#367d34;fill-opacity:1;fill-rule:nonzero;stroke:none"
           d="m 0,0 c 0,-14.255 -11.556,-25.811 -25.811,-25.811 -14.255,0 -25.811,11.556 -25.811,25.811 0,14.255 11.556,25.811 25.811,25.811 C -11.556,25.811 0,14.255 0,0" /></g><g
         transform="translate(819.9917,316.158)"
         id="g316"><path
           inkscape:connector-curvature="0"
           id="path318"
           style="fill:#44ba3b;fill-opacity:1;fill-rule:nonzero;stroke:none"
           d="m 0,0 c 0,-10.367 -8.404,-18.771 -18.771,-18.771 -10.368,0 -18.772,8.404 -18.772,18.771 0,10.367 8.404,18.771 18.772,18.771 C -8.404,18.771 0,10.367 0,0" /></g><g
         transform="translate(819.9917,316.158)"
         id="g320"><path
           inkscape:connector-curvature="0"
           id="path322"
           style="fill:none;stroke:#ffffff;stroke-width:2;stroke-linecap:butt;stroke-linejoin:miter;stroke-miterlimit:10;stroke-dasharray:3.93, 3.93;stroke-dashoffset:0;stroke-opacity:1"
           d="m 0,0 c 0,-10.367 -8.404,-18.771 -18.771,-18.771 -10.368,0 -18.772,8.404 -18.772,18.771 0,10.367 8.404,18.771 18.772,18.771 C -8.404,18.771 0,10.367 0,0 Z" /></g><g
         transform="translate(801.2203,309.9196)"
         id="g324"><path
           inkscape:connector-curvature="0"
           id="path326"
           style="fill:#ffffff;fill-opacity:1;fill-rule:nonzero;stroke:none"
           d="m 0,0 c -3.72,0 -6.736,3.016 -6.736,6.736 0,3.72 3.016,6.736 6.736,6.736 3.72,0 6.736,-3.016 6.736,-6.736 C 6.736,3.016 3.72,0 0,0 m 0.048,13.632 -0.096,0 c -11.628,0 -15.629,-6.464 -15.895,-6.916 0.266,-0.452 4.267,-6.916 15.895,-6.916 l 0.096,0 c 11.628,0 15.629,6.464 15.895,6.916 -0.266,0.452 -4.267,6.916 -15.895,6.916" /></g><g
         transform="translate(817.178,316.6613)"
         id="g328"><path
           inkscape:connector-curvature="0"
           id="path330"
           style="fill:#ffffff;fill-opacity:1;fill-rule:nonzero;stroke:none"
           d="M 0,0 C 0,0 -0.005,-0.009 -0.015,-0.026 -0.005,-0.042 0,-0.051 0,-0.051 L 0,0 Z" /></g><g
         transform="translate(785.2625,316.6098)"
         id="g332"><path
           inkscape:connector-curvature="0"
           id="path334"
           style="fill:#ffffff;fill-opacity:1;fill-rule:nonzero;stroke:none"
           d="M 0,0 C 0,0 0.005,0.009 0.015,0.026 0.005,0.042 0,0.051 0,0.051 L 0,0 Z" /></g><g
         transform="translate(803.8666,316.6355)"
         id="g336"><path
           inkscape:connector-curvature="0"
           id="path338"
           style="fill:#ffffff;fill-opacity:1;fill-rule:nonzero;stroke:none"
           d="m 0,0 c 0,-1.461 -1.185,-2.646 -2.646,-2.646 -1.462,0 -2.647,1.185 -2.647,2.646 0,1.462 1.185,2.646 2.647,2.646 C -1.185,2.646 0,1.462 0,0" /></g></g><g
       id="g8333"><g
         transform="translate(159.9361,303.7976)"
         id="g340"><path
           inkscape:connector-curvature="0"
           id="path342"
           style="fill:#367d34;fill-opacity:1;fill-rule:nonzero;stroke:none"
           d="m 0,0 c -6.32,0 -12.107,-2.275 -16.594,-6.046 -1.893,3.659 -5.706,6.165 -10.111,6.165 -6.288,0 -11.385,-5.097 -11.385,-11.385 0,-6.288 5.097,-11.385 11.385,-11.385 0.372,0 0.738,0.02 1.101,0.055 -0.131,-1.054 -0.207,-2.125 -0.207,-3.215 0,-14.255 11.556,-25.811 25.811,-25.811 14.255,0 25.811,11.556 25.811,25.811 C 25.811,-11.556 14.255,0 0,0" /></g><g
         transform="translate(129.0164,289.4775)"
         id="g344"><path
           inkscape:connector-curvature="0"
           id="path346"
           style="fill:#ffffff;fill-opacity:1;fill-rule:nonzero;stroke:none"
           d="M 0,0 -2.972,3.577 -3.984,2.368 0,-2.428 8.553,7.866 7.548,9.076 0,0 Z" /></g><g
         transform="translate(129.0164,289.4775)"
         id="g348"><path
           inkscape:connector-curvature="0"
           id="path350"
           style="fill:none;stroke:#ffffff;stroke-width:1;stroke-linecap:butt;stroke-linejoin:miter;stroke-miterlimit:10;stroke-dasharray:none;stroke-opacity:1"
           d="M 0,0 -2.972,3.577 -3.984,2.368 0,-2.428 8.553,7.866 7.548,9.076 0,0 Z" /></g><g
         id="g352"><g
           clip-path="url(#clipPath356)"
           id="g354"><g
             transform="translate(157.1623,263.4633)"
             id="g360"><path
               inkscape:connector-curvature="0"
               id="path362"
               style="fill:#ffffff;fill-opacity:1;fill-rule:nonzero;stroke:none"
               d="m 0,0 c 0,7.582 5.302,13.729 11.842,13.729 -3.454,4.004 -8.145,6.292 -13.322,6.292 -5.178,0 -9.869,-2.288 -13.323,-6.292 l -17.27,-20.021 33.391,0 C 0.478,-4.407 0,-2.269 0,0" /></g><g
             transform="translate(170.777,252.5417)"
             id="g364"><path
               inkscape:connector-curvature="0"
               id="path366"
               style="fill:#ffffff;fill-opacity:1;fill-rule:nonzero;stroke:none"
               d="m 0,0 0,39.446 2.324,0 L 4.647,3.43" /></g></g></g></g><g
       id="g8990"><g
         id="g368"><g
           clip-path="url(#clipPath372)"
           id="g370"><g
             transform="translate(235.3525,303.7976)"
             id="g376"><path
               inkscape:connector-curvature="0"
               id="path378"
               style="fill:#367d34;fill-opacity:1;fill-rule:nonzero;stroke:none"
               d="m 0,0 c -6.32,0 -12.107,-2.275 -16.594,-6.046 -1.893,3.659 -5.706,6.165 -10.111,6.165 -6.288,0 -11.385,-5.097 -11.385,-11.385 0,-6.288 5.097,-11.385 11.385,-11.385 0.372,0 0.738,0.02 1.101,0.055 -0.131,-1.054 -0.207,-2.125 -0.207,-3.215 0,-14.255 11.556,-25.811 25.811,-25.811 14.255,0 25.811,11.556 25.811,25.811 C 25.811,-11.556 14.255,0 0,0" /></g><g
             transform="translate(212.7933,294.4974)"
             id="g380"><path
               inkscape:connector-curvature="0"
               id="path382"
               style="fill:#ffffff;fill-opacity:1;fill-rule:nonzero;stroke:none"
               d="m 0,0 -4.505,7.093 0,-4.099 -0.001,0 0,4.099 L -9.011,0 l 2.901,0 0,-5.029 3.209,0 0,5.029 L 0,0 Z" /></g><g
             transform="translate(206.6837,288.8841)"
             id="g384"><path
               inkscape:connector-curvature="0"
               id="path386"
               style="fill:#ffffff;fill-opacity:1;fill-rule:nonzero;stroke:none"
               d="m 0,0 0,-1.364 3.208,0 0,1.364" /></g><g
             transform="translate(206.6837,287.0816)"
             id="g388"><path
               inkscape:connector-curvature="0"
               id="path390"
               style="fill:#ffffff;fill-opacity:1;fill-rule:nonzero;stroke:none"
               d="m 0,0 0,-1.364 3.208,0 0,1.364" /></g><g
             transform="translate(206.6837,285.2304)"
             id="g392"><path
               inkscape:connector-curvature="0"
               id="path394"
               style="fill:#ffffff;fill-opacity:1;fill-rule:nonzero;stroke:none"
               d="m 0,0 0,-1.364 3.208,0 0,1.364" /></g><g
             transform="translate(259.6837,267.4974)"
             id="g396"><path
               inkscape:connector-curvature="0"
               id="path398"
               style="fill:#ffffff;fill-opacity:1;fill-rule:nonzero;stroke:none"
               d="m 0,0 0,-5.029 3.208,0 0,5.029" /></g></g></g><g
         id="g400"><g
           clip-path="url(#clipPath404)"
           id="g402"><g
             transform="translate(232.7314,263.4633)"
             id="g408"><path
               inkscape:connector-curvature="0"
               id="path410"
               style="fill:#ffffff;fill-opacity:1;fill-rule:nonzero;stroke:none"
               d="m 0,0 c 0,7.582 5.302,13.729 11.842,13.729 -3.454,4.004 -8.145,6.292 -13.322,6.292 -5.178,0 -9.869,-2.288 -13.323,-6.292 l -17.27,-20.021 33.391,0 C 0.478,-4.407 0,-2.269 0,0" /></g><g
             transform="translate(246.3461,252.5417)"
             id="g412"><path
               inkscape:connector-curvature="0"
               id="path414"
               style="fill:#ffffff;fill-opacity:1;fill-rule:nonzero;stroke:none"
               d="m 0,0 0,39.446 2.324,0 L 4.647,3.43" /></g></g></g></g><g
       id="g9685"><g
         id="g416"><g
           clip-path="url(#clipPath420)"
           id="g418"><g
             transform="translate(312.4821,303.7976)"
             id="g424"><path
               inkscape:connector-curvature="0"
               id="path426"
               style="fill:#367d34;fill-opacity:1;fill-rule:nonzero;stroke:none"
               d="m 0,0 c -6.32,0 -12.107,-2.275 -16.594,-6.046 -1.893,3.659 -5.706,6.165 -10.111,6.165 -6.288,0 -11.385,-5.097 -11.385,-11.385 0,-6.288 5.097,-11.385 11.385,-11.385 0.372,0 0.738,0.02 1.101,0.055 -0.131,-1.054 -0.207,-2.125 -0.207,-3.215 0,-14.255 11.556,-25.811 25.811,-25.811 14.255,0 25.811,11.556 25.811,25.811 C 25.811,-11.556 14.255,0 0,0" /></g><g
             transform="translate(286.9522,298.6568)"
             id="g428"><path
               inkscape:connector-curvature="0"
               id="path430"
               style="fill:#ffffff;fill-opacity:1;fill-rule:nonzero;stroke:none"
               d="M 0,0 -2.588,0.925 C -3.008,1.079 -3.464,1.044 -3.84,0.854 l -3.782,-1.929 c -0.438,-0.222 -0.583,-0.727 -0.33,-1.148 l 0.617,-1.022 c 0.254,-0.42 0.797,-0.577 1.236,-0.354 l 1.628,0.824 3.383,-5.61 C -1.17,-8.61 -1.153,-8.863 -1.021,-9.083 l 3.251,-5.39 c 0.254,-0.421 0.798,-0.577 1.236,-0.355 l 0.543,0.275 c 0.438,0.222 0.583,0.727 0.329,1.148 L 1.083,-8.031 C 0.95,-7.81 0.725,-7.663 0.474,-7.607 l -3.384,5.61 2.947,1.506 c 0.105,0.053 0.152,0.155 0.145,0.256 C 0.176,-0.133 0.099,-0.028 0,0" /></g></g></g><g
         id="g432"><g
           clip-path="url(#clipPath436)"
           id="g434"><g
             transform="translate(309.6193,263.4633)"
             id="g440"><path
               inkscape:connector-curvature="0"
               id="path442"
               style="fill:#ffffff;fill-opacity:1;fill-rule:nonzero;stroke:none"
               d="m 0,0 c 0,7.582 5.302,13.729 11.842,13.729 -3.454,4.004 -8.145,6.292 -13.322,6.292 -5.178,0 -9.869,-2.288 -13.323,-6.292 l -17.27,-20.021 33.391,0 C 0.478,-4.407 0,-2.269 0,0" /></g><g
             transform="translate(323.2339,252.5417)"
             id="g444"><path
               inkscape:connector-curvature="0"
               id="path446"
               style="fill:#ffffff;fill-opacity:1;fill-rule:nonzero;stroke:none"
               d="m 0,0 0,39.446 2.324,0 L 4.647,3.43" /></g></g></g></g><g
       id="g10329"><g
         id="g448"><g
           clip-path="url(#clipPath452)"
           id="g450"><g
             transform="translate(388.7474,303.7976)"
             id="g456"><path
               inkscape:connector-curvature="0"
               id="path458"
               style="fill:#367d34;fill-opacity:1;fill-rule:nonzero;stroke:none"
               d="m 0,0 c -6.32,0 -12.107,-2.275 -16.594,-6.046 -1.893,3.659 -5.706,6.165 -10.111,6.165 -6.288,0 -11.385,-5.097 -11.385,-11.385 0,-6.288 5.097,-11.385 11.385,-11.385 0.372,0 0.738,0.02 1.101,0.055 -0.131,-1.054 -0.207,-2.125 -0.207,-3.215 0,-14.255 11.556,-25.811 25.811,-25.811 14.255,0 25.811,11.556 25.811,25.811 C 25.811,-11.556 14.255,0 0,0" /></g><g
             transform="translate(365.7525,290.5189)"
             id="g460"><path
               inkscape:connector-curvature="0"
               id="path462"
               style="fill:#ffffff;fill-opacity:1;fill-rule:nonzero;stroke:none"
               d="M 0,0 -2.165,2.165 0,4.33 -1.599,5.93 -3.765,3.765 -5.93,5.93 -7.529,4.33 -5.364,2.165 -7.529,0 -5.93,-1.599 -3.765,0.566 -1.599,-1.599 0,0 Z" /></g></g></g><g
         id="g464"><g
           clip-path="url(#clipPath468)"
           id="g466"><g
             transform="translate(385.8977,263.4633)"
             id="g472"><path
               inkscape:connector-curvature="0"
               id="path474"
               style="fill:#ffffff;fill-opacity:1;fill-rule:nonzero;stroke:none"
               d="m 0,0 c 0,7.582 5.302,13.729 11.842,13.729 -3.454,4.004 -8.145,6.292 -13.322,6.292 -5.178,0 -9.869,-2.288 -13.323,-6.292 l -17.27,-20.021 33.391,0 C 0.478,-4.407 0,-2.269 0,0" /></g><g
             transform="translate(399.5124,252.5417)"
             id="g476"><path
               inkscape:connector-curvature="0"
               id="path478"
               style="fill:#ffffff;fill-opacity:1;fill-rule:nonzero;stroke:none"
               d="m 0,0 0,39.446 2.324,0 L 4.647,3.43" /></g></g></g></g><g
       id="g10973"><g
         id="g480"><g
           clip-path="url(#clipPath484)"
           id="g482"><g
             transform="translate(464.976,304.8897)"
             id="g488"><path
               inkscape:connector-curvature="0"
               id="path490"
               style="fill:#367d34;fill-opacity:1;fill-rule:nonzero;stroke:none"
               d="m 0,0 c -6.32,0 -12.107,-2.275 -16.594,-6.046 -1.893,3.659 -5.706,6.165 -10.111,6.165 -6.288,0 -11.385,-5.097 -11.385,-11.385 0,-6.288 5.097,-11.385 11.385,-11.385 0.372,0 0.738,0.02 1.101,0.055 -0.131,-1.054 -0.207,-2.125 -0.207,-3.215 0,-14.255 11.556,-25.811 25.811,-25.811 14.255,0 25.811,11.556 25.811,25.811 C 25.811,-11.556 14.255,0 0,0" /></g><g
             transform="translate(442.056,295.0958)"
             id="g492"><path
               inkscape:connector-curvature="0"
               id="path494"
               style="fill:#ffffff;fill-opacity:1;fill-rule:nonzero;stroke:none"
               d="m 0,0 -3.062,0 0,3.062 -2.262,0 0,-3.062 -3.062,0 0,-2.262 3.062,0 0,-3.062 2.262,0 0,3.062 3.062,0 L 0,0 Z" /></g></g></g><g
         id="g496"><g
           clip-path="url(#clipPath500)"
           id="g498"><g
             transform="translate(450.6307,247.9135)"
             id="g504"><path
               inkscape:connector-curvature="0"
               id="path506"
               style="fill:#ffffff;fill-opacity:1;fill-rule:nonzero;stroke:none"
               d="M 0,0 C 5.162,-12.02 23.124,-15.847 40.12,-8.548 57.115,-1.249 66.709,14.411 61.547,26.431 56.385,38.45 38.423,42.277 21.428,34.979 4.432,27.68 -5.162,12.02 0,0" /></g><g
             transform="translate(451.8947,264.2682)"
             id="g508"><path
               inkscape:connector-curvature="0"
               id="path510"
               style="fill:#ffffff;fill-opacity:1;fill-rule:nonzero;stroke:none"
               d="m 0,0 0,15.117 0.89,0 0.891,-13.803" /></g><g
             transform="translate(458.476,270.2273)"
             id="g512"><path
               inkscape:connector-curvature="0"
               id="path514"
               style="fill:#ffffff;fill-opacity:1;fill-rule:nonzero;stroke:none"
               d="m 0,0 0,15.117 0.89,0 0.891,-13.803" /></g><g
             transform="translate(465.0573,275.96)"
             id="g516"><path
               inkscape:connector-curvature="0"
               id="path518"
               style="fill:#ffffff;fill-opacity:1;fill-rule:nonzero;stroke:none"
               d="m 0,0 0,15.117 0.89,0 0.891,-13.803" /></g><g
             transform="translate(471.6386,278.8264)"
             id="g520"><path
               inkscape:connector-curvature="0"
               id="path522"
               style="fill:#ffffff;fill-opacity:1;fill-rule:nonzero;stroke:none"
               d="m 0,0 0,15.117 0.89,0 0.891,-13.803" /></g><g
             transform="translate(478.2199,281.6927)"
             id="g524"><path
               inkscape:connector-curvature="0"
               id="path526"
               style="fill:#ffffff;fill-opacity:1;fill-rule:nonzero;stroke:none"
               d="m 0,0 0,15.117 0.89,0 0.891,-13.803" /></g></g></g></g></g></svg>