<?xml version="1.0" encoding="UTF-8" standalone="no"?>
<svg
   xmlns:dc="http://purl.org/dc/elements/1.1/"
   xmlns:cc="http://creativecommons.org/ns#"
   xmlns:rdf="http://www.w3.org/1999/02/22-rdf-syntax-ns#"
   xmlns:svg="http://www.w3.org/2000/svg"
   xmlns="http://www.w3.org/2000/svg"
   version="1.1"
   id="svg4709"
   viewBox="0 0 79.876249 64.676248"
   height="18.253075mm"
   width="22.542852mm">
  <defs
     id="defs4711">
    <clipPath
       id="clipPath16"
       clipPathUnits="userSpaceOnUse">
      <path
         id="path18"
         d="m 0,651.973 898.583,0 L 898.583,0 0,0 0,651.973 Z" />
    </clipPath>
    <clipPath
       id="clipPath32"
       clipPathUnits="userSpaceOnUse">
      <path
         id="path34"
         d="m 133.203,357.366 c 0,-14.255 11.555,-25.811 25.81,-25.811 l 0,0 c 14.255,0 25.811,11.556 25.811,25.811 l 0,0 c 0,14.255 -11.556,25.811 -25.811,25.811 l 0,0 c -14.255,0 -25.81,-11.556 -25.81,-25.811" />
    </clipPath>
  </defs>
  <metadata
     id="metadata4714">
    <rdf:RDF>
      <cc:Work
         rdf:about="">
        <dc:format>image/svg+xml</dc:format>
        <dc:type
           rdf:resource="http://purl.org/dc/dcmitype/StillImage" />
        <dc:title></dc:title>
      </cc:Work>
    </rdf:RDF>
  </metadata>
  <g
     transform="translate(-91.490442,-54.309795)"
     id="layer1">
    <g
       id="g4654"
       transform="matrix(1.25,0,0,-1.25,-59.694683,533.41567)">
      <g
         id="g12">
        <g
           id="g14"
           clip-path="url(#clipPath16)">
          <g
             id="g20"
             transform="translate(159.0381,383.1657)">
            <path
               d="m 0,0 c -6.32,0 -12.107,-2.275 -16.594,-6.046 -1.893,3.659 -5.706,6.165 -10.111,6.165 -6.288,0 -11.385,-5.097 -11.385,-11.385 0,-6.288 5.097,-11.385 11.385,-11.385 0.372,0 0.738,0.02 1.101,0.055 -0.131,-1.054 -0.207,-2.125 -0.207,-3.215 0,-14.255 11.556,-25.811 25.811,-25.811 14.255,0 25.811,11.556 25.811,25.811 C 25.811,-11.556 14.255,0 0,0"
               style="fill:#367d34;fill-opacity:1;fill-rule:nonzero;stroke:none"
               id="path22" />
          </g>
          <g
             id="g24"
             transform="translate(136.1182,373.3718)">
            <path
               d="m 0,0 -3.062,0 0,3.062 -2.262,0 0,-3.062 -3.062,0 0,-2.262 3.062,0 0,-3.062 2.262,0 0,3.062 3.062,0 L 0,0 Z"
               style="fill:#ffffff;fill-opacity:1;fill-rule:nonzero;stroke:none"
               id="path26" />
          </g>
        </g>
      </g>
      <g
         id="g28">
        <g
           id="g30"
           clip-path="url(#clipPath32)">
          <g
             id="g36"
             transform="translate(140.7264,348.0707)">
            <path
               d="m 0,0 0,-9.039 3.543,-0.894 0,9.039 L 0,0 Z"
               style="fill:#ffffff;fill-opacity:1;fill-rule:nonzero;stroke:none"
               id="path38" />
          </g>
          <g
             id="g40"
             transform="translate(162.7443,354.5602)">
            <path
               d="m 0,0 -7.781,11.886 -12.482,-3.973 -7.748,-8.012 0,-13.94 1.424,-0.364 0,13.178 6.324,6.556 6.39,-9.701 0,-13.178 1.391,-0.364 L 0,-13.939 0,0 Z"
               style="fill:#ffffff;fill-opacity:1;fill-rule:nonzero;stroke:none"
               id="path42" />
          </g>
          <g
             id="g44"
             transform="translate(164.1579,369.7338)">
            <path
               d="m 0,0 0,-9.039 3.543,-0.894 0,9.039 L 0,0 Z"
               style="fill:#ffffff;fill-opacity:1;fill-rule:nonzero;stroke:none"
               id="path46" />
          </g>
          <g
             id="g48"
             transform="translate(186.1758,376.2233)">
            <path
               d="m 0,0 -7.781,11.886 -12.482,-3.973 -7.748,-8.012 0,-13.939 1.424,-0.365 0,13.178 6.324,6.556 6.39,-9.701 0,-13.178 1.391,-0.364 L 0,-13.939 0,0 Z"
               style="fill:#ffffff;fill-opacity:1;fill-rule:nonzero;stroke:none"
               id="path50" />
          </g>
          <g
             id="g52"
             transform="translate(171.2315,342.3234)">
            <path
               d="m 0,0 0,-9.039 3.543,-0.894 0,9.039 L 0,0 Z"
               style="fill:#ffffff;fill-opacity:1;fill-rule:nonzero;stroke:none"
               id="path54" />
          </g>
          <g
             id="g56"
             transform="translate(193.2494,348.8129)">
            <path
               d="m 0,0 -7.781,11.886 -12.482,-3.973 -7.748,-8.012 0,-13.94 1.424,-0.364 0,13.178 6.324,6.556 6.39,-9.701 0,-13.178 1.391,-0.364 L 0,-13.939 0,0 Z"
               style="fill:#ffffff;fill-opacity:1;fill-rule:nonzero;stroke:none"
               id="path58" />
          </g>
        </g>
      </g>
    </g>
  </g>
</svg>
